  0
SECTION
  2
HEADER
999
BEZARC 1.0.1
  9
$FASTZOOM
 70
0
  9
$FILLMODE
 70
1
  9
$SPLINETYPE
 70
5
  0
ENDSEC
  0
SECTION
  2
ENTITIES
  0
POLYLINE
  8
0
 66
1
 70
1
  0
VERTEX
  8
0
 10
7.873965
 20
6.671407
 42
0.040011
  0
VERTEX
  8
0
 10
7.81047
 20
6.758601
 42
0.017134
  0
VERTEX
  8
0
 10
7.692996
 20
6.888364
 42
0.232682
  0
VERTEX
  8
0
 10
7.713169
 20
6.915742
 42
0.057303
  0
VERTEX
  8
0
 10
7.716051
 20
6.955225
 42
-0.290724
  0
VERTEX
  8
0
 10
7.688962
 20
7.006868
 42
-0.078584
  0
VERTEX
  8
0
 10
7.706005
 20
7.067154
 42
0.001377
  0
VERTEX
  8
0
 10
7.709135
 20
7.075114
 42
0.511507
  0
VERTEX
  8
0
 10
7.681468
 20
7.114308
 42
-0.151087
  0
VERTEX
  8
0
 10
7.681897
 20
7.157359
 42
-0.046334
  0
VERTEX
  8
0
 10
7.69948
 20
7.198314
 42
0.044053
  0
VERTEX
  8
0
 10
7.716051
 20
7.236504
 42
0.231933
  0
VERTEX
  8
0
 10
7.66994
 20
7.370226
 42
-0.042441
  0
VERTEX
  8
0
 10
7.680629
 20
7.390002
 42
0.236969
  0
VERTEX
  8
0
 10
7.692996
 20
7.441699
 42
-0.184005
  0
VERTEX
  8
0
 10
7.680717
 20
7.489669
 42
-0.06762
  0
VERTEX
  8
0
 10
7.694345
 20
7.535132
 42
0.106684
  0
VERTEX
  8
0
 10
7.709135
 20
7.596171
 42
-0.186271
  0
VERTEX
  8
0
 10
7.692021
 20
7.643221
 42
-0.063893
  0
VERTEX
  8
0
 10
7.700603
 20
7.691347
 42
0.06283
  0
VERTEX
  8
0
 10
7.708815
 20
7.736625
 42
0.197869
  0
VERTEX
  8
0
 10
7.692996
 20
7.77831
 42
-0.113483
  0
VERTEX
  8
0
 10
7.679162
 20
7.812605
 42
-0.331274
  0
VERTEX
  8
0
 10
7.692996
 20
7.845172
 42
0.213192
  0
VERTEX
  8
0
 10
7.695712
 20
7.88842
 42
0.081878
  0
VERTEX
  8
0
 10
7.672777
 20
7.922295
 42
-0.065145
  0
VERTEX
  8
0
 10
7.64919
 20
7.955837
 42
-0.037925
  0
VERTEX
  8
0
 10
7.659893
 20
7.982647
 42
0.039455
  0
VERTEX
  8
0
 10
7.671137
 20
8.011027
 42
0.207843
  0
VERTEX
  8
0
 10
7.66994
 20
8.034228
 42
-0.13724
  0
VERTEX
  8
0
 10
7.630169
 20
8.062759
 42
-0.206343
  0
VERTEX
  8
0
 10
7.614607
 20
8.110311
 42
0.11101
  0
VERTEX
  8
0
 10
7.631205
 20
8.130566
 42
0.203538
  0
VERTEX
  8
0
 10
7.631833
 20
8.146956
 42
0.128042
  0
VERTEX
  8
0
 10
7.605386
 20
8.17412
 42
-0.08403
  0
VERTEX
  8
0
 10
7.577718
 20
8.200228
 42
-0.089586
  0
VERTEX
  8
0
 10
7.565902
 20
8.297926
 42
-0.143048
  0
VERTEX
  8
0
 10
7.593857
 20
8.386978
 42
-0.031759
  0
VERTEX
  8
0
 10
7.580047
 20
8.392226
 42
0.17038
  0
VERTEX
  8
0
 10
7.543133
 20
8.398507
 42
-0.079156
  0
VERTEX
  8
0
 10
7.515755
 20
8.429055
 42
-0.213785
  0
VERTEX
  8
0
 10
7.510857
 20
8.469979
 42
0.141331
  0
VERTEX
  8
0
 10
7.52485
 20
8.485958
 42
0.292416
  0
VERTEX
  8
0
 10
7.522129
 20
8.497901
 42
0.101386
  0
VERTEX
  8
0
 10
7.488827
 20
8.515065
 42
-0.101386
  0
VERTEX
  8
0
 10
7.455522
 20
8.532229
 42
-0.181347
  0
VERTEX
  8
0
 10
7.428457
 20
8.587204
 42
-0.05909
  0
VERTEX
  8
0
 10
7.431222
 20
8.650095
 42
0.078174
  0
VERTEX
  8
0
 10
7.432468
 20
8.730507
 42
0.185079
  0
VERTEX
  8
0
 10
7.392121
 20
8.800538
 42
0.104237
  0
VERTEX
  8
0
 10
7.317189
 20
8.841174
 42
0.157663
  0
VERTEX
  8
0
 10
7.2476
 20
8.848481
 42
0.053006
  0
VERTEX
  8
0
 10
7.181981
 20
8.825985
 42
-0.1148
  0
VERTEX
  8
0
 10
7.088939
 20
8.801979
 42
0.092401
  0
VERTEX
  8
0
 10
7.082883
 20
8.839936
 42
0.21374
  0
VERTEX
  8
0
 10
7.068107
 20
8.85563
 42
0.154936
  0
VERTEX
  8
0
 10
7.021889
 20
8.849221
 42
-0.100131
  0
VERTEX
  8
0
 10
6.973598
 20
8.84009
 42
-0.296352
  0
VERTEX
  8
0
 10
6.934467
 20
8.873451
 42
-0.011382
  0
VERTEX
  8
0
 10
6.912459
 20
8.876717
 42
0.056226
  0
VERTEX
  8
0
 10
6.866993
 20
8.880795
 42
0.160068
  0
VERTEX
  8
0
 10
6.8238
 20
8.864229
 42
-0.025555
  0
VERTEX
  8
0
 10
6.808556
 20
8.879235
 42
0.113303
  0
VERTEX
  8
0
 10
6.779994
 20
8.901118
 42
0.166667
  0
VERTEX
  8
0
 10
6.696994
 20
8.901118
 42
-0.009726
  0
VERTEX
  8
0
 10
6.611371
 20
8.90783
 42
0.03512
  0
VERTEX
  8
0
 10
6.420915
 20
8.916091
 42
0.122378
  0
VERTEX
  8
0
 10
6.242799
 20
8.86884
 42
0.01808
  0
VERTEX
  8
0
 10
6.209904
 20
8.865477
 42
-0.050669
  0
VERTEX
  8
0
 10
6.146769
 20
8.861824
 42
-0.190645
  0
VERTEX
  8
0
 10
6.092936
 20
8.884979
 42
-0.223027
  0
VERTEX
  8
0
 10
6.057634
 20
8.86849
 42
-0.062057
  0
VERTEX
  8
0
 10
6.014603
 20
8.874626
 42
0.051894
  0
VERTEX
  8
0
 10
5.970002
 20
8.881422
 42
0.163034
  0
VERTEX
  8
0
 10
5.926938
 20
8.86884
 42
0.194767
  0
VERTEX
  8
0
 10
5.869463
 20
8.877466
 42
0.066658
  0
VERTEX
  8
0
 10
5.81564
 20
8.854075
 42
-0.058464
  0
VERTEX
  8
0
 10
5.756799
 20
8.828082
 42
-0.147217
  0
VERTEX
  8
0
 10
5.684853
 20
8.829646
 42
-0.095751
  0
VERTEX
  8
0
 10
5.604158
 20
8.759326
 42
-0.138585
  0
VERTEX
  8
0
 10
5.495796
 20
8.730507
 42
0.23311
  0
VERTEX
  8
0
 10
5.434109
 20
8.694847
 42
0.065379
  0
VERTEX
  8
0
 10
5.401653
 20
8.627914
 42
-0.009706
  0
VERTEX
  8
0
 10
5.392046
 20
8.6037
 42
0.033404
  0
VERTEX
  8
0
 10
5.238725
 20
8.627288
 42
-0.021821
  0
VERTEX
  8
0
 10
5.12037
 20
8.643557
 42
-0.067547
  0
VERTEX
  8
0
 10
5.009324
 20
8.679785
 42
0.204155
  0
VERTEX
  8
0
 10
4.982233
 20
8.506579
 42
0.055352
  0
VERTEX
  8
0
 10
5.041601
 20
8.338561
 42
-0.063023
  0
VERTEX
  8
0
 10
5.085978
 20
8.307012
 42
-0.270953
  0
VERTEX
  8
0
 10
5.095279
 20
8.285813
 42
-0.198776
  0
VERTEX
  8
0
 10
5.079826
 20
8.271005
 42
-0.030793
  0
VERTEX
  8
0
 10
5.04994
 20
8.25863
 42
0.061918
  0
VERTEX
  8
0
 10
4.999357
 20
8.235094
 42
0.283824
  0
VERTEX
  8
0
 10
4.977046
 20
8.193311
 42
0.237163
  0
VERTEX
  8
0
 10
5.015086
 20
8.165645
 42
-0.237163
  0
VERTEX
  8
0
 10
5.053129
 20
8.137978
 42
0.12167
  0
VERTEX
  8
0
 10
4.949378
 20
8.078033
 42
0.379377
  0
VERTEX
  8
0
 10
4.952035
 20
8.03988
 42
0.10287
  0
VERTEX
  8
0
 10
4.99101
 20
8.023936
 42
-0.109398
  0
VERTEX
  8
0
 10
5.032379
 20
8.006561
 42
-0.078078
  0
VERTEX
  8
0
 10
4.973586
 20
7.975435
 42
0.078071
  0
VERTEX
  8
0
 10
4.914796
 20
7.944311
 42
0.207058
  0
VERTEX
  8
0
 10
4.916022
 20
7.908557
 42
0.061895
  0
VERTEX
  8
0
 10
4.93719
 20
7.876722
 42
-0.170248
  0
VERTEX
  8
0
 10
4.965515
 20
7.817504
 42
-0.186534
  0
VERTEX
  8
0
 10
4.914796
 20
7.789839
 42
0.097733
  0
VERTEX
  8
0
 10
4.4606
 20
7.679171
  0
VERTEX
  8
0
 10
4.4606
 20
7.663032
 42
-0.231989
  0
VERTEX
  8
0
 10
4.481246
 20
7.652878
 42
-0.242256
  0
VERTEX
  8
0
 10
4.480019
 20
7.635901
 42
-0.077552
  0
VERTEX
  8
0
 10
4.452987
 20
7.602385
 42
0.000681
  0
VERTEX
  8
0
 10
4.451378
 20
7.600782
 42
0.416667
  0
VERTEX
  8
0
 10
4.451378
 20
7.517782
 42
-0.119811
  0
VERTEX
  8
0
 10
4.361461
 20
7.434782
 42
0.073844
  0
VERTEX
  8
0
 10
4.306415
 20
7.373397
 42
0.22862
  0
VERTEX
  8
0
 10
4.294599
 20
7.296449
 42
0.059969
  0
VERTEX
  8
0
 10
4.225574
 20
7.177699
 42
-0.051515
  0
VERTEX
  8
0
 10
4.167793
 20
7.075114
 42
-0.142277
  0
VERTEX
  8
0
 10
3.963634
 20
6.998666
 42
-0.039992
  0
VERTEX
  8
0
 10
3.737277
 20
6.996603
 42
0.003709
  0
VERTEX
  8
0
 10
3.676708
 20
6.999031
 42
-0.03264
  0
VERTEX
  8
0
 10
3.651977
 20
6.990396
 42
0.080772
  0
VERTEX
  8
0
 10
3.611704
 20
6.973495
 42
0.321721
  0
VERTEX
  8
0
 10
3.598321
 20
6.936781
  0
VERTEX
  8
0
 10
3.598321
 20
6.936781
 42
0.176467
  0
VERTEX
  8
0
 10
3.630596
 20
6.943697
 42
0.089082
  0
VERTEX
  8
0
 10
3.661129
 20
6.931925
 42
-0.242862
  0
VERTEX
  8
0
 10
3.704375
 20
6.904503
 42
0.080384
  0
VERTEX
  8
0
 10
3.539816
 20
6.878277
 42
0.158006
  0
VERTEX
  8
0
 10
3.404653
 20
6.777697
 42
-0.083581
  0
VERTEX
  8
0
 10
3.298481
 20
6.719118
 42
-0.027481
  0
VERTEX
  8
0
 10
3.181795
 20
6.685382
 42
0.026506
  0
VERTEX
  8
0
 10
3.070868
 20
6.653518
 42
0.085074
  0
VERTEX
  8
0
 10
2.973514
 20
6.600169
 42
-0.084992
  0
VERTEX
  8
0
 10
2.885292
 20
6.519177
 42
-0.028374
  0
VERTEX
  8
0
 10
2.780583
 20
6.460128
 42
0.0436
  0
VERTEX
  8
0
 10
2.648223
 20
6.381812
 42
0.116619
  0
VERTEX
  8
0
 10
2.542374
 20
6.25664
 42
-0.034733
  0
VERTEX
  8
0
 10
2.455699
 20
6.237545
 42
0.061484
  0
VERTEX
  8
0
 10
2.341789
 20
6.208224
 42
0.102046
  0
VERTEX
  8
0
 10
2.249298
 20
6.143103
 42
0.037146
  0
VERTEX
  8
0
 10
2.182814
 20
6.059261
 42
-0.067036
  0
VERTEX
  8
0
 10
2.097484
 20
5.959519
 42
-0.173842
  0
VERTEX
  8
0
 10
1.965983
 20
5.913111
 42
-0.082681
  0
VERTEX
  8
0
 10
1.830001
 20
5.808896
 42
0.046728
  0
VERTEX
  8
0
 10
1.721285
 20
5.733331
 42
0.133454
  0
VERTEX
  8
0
 10
1.64551
 20
5.620306
 42
-0.19584
  0
VERTEX
  8
0
 10
1.628994
 20
5.565918
 42
-0.072664
  0
VERTEX
  8
0
 10
1.587099
 20
5.531246
 42
0.151163
  0
VERTEX
  8
0
 10
1.527926
 20
5.470444
 42
-0.179793
  0
VERTEX
  8
0
 10
1.477284
 20
5.269978
 42
-0.050565
  0
VERTEX
  8
0
 10
1.338623
 20
5.104019
 42
0.0002
  0
VERTEX
  8
0
 10
1.329649
 20
5.094637
 42
0.077705
  0
VERTEX
  8
0
 10
1.29955
 20
5.018714
 42
0.023228
  0
VERTEX
  8
0
 10
1.2841
 20
4.933726
 42
-0.048081
  0
VERTEX
  8
0
 10
1.258176
 20
4.81336
 42
-0.000659
  0
VERTEX
  8
0
 10
1.240854
 20
4.782452
 42
0.012396
  0
VERTEX
  8
0
 10
1.168169
 20
4.6479
 42
0.041652
  0
VERTEX
  8
0
 10
1.112924
 20
4.513636
 42
0.089483
  0
VERTEX
  8
0
 10
1.051447
 20
4.334932
 42
0.026852
  0
VERTEX
  8
0
 10
1.030977
 20
4.137099
 42
-0.045074
  0
VERTEX
  8
0
 10
0.99938
 20
3.888436
 42
-0.152112
  0
VERTEX
  8
0
 10
0.882369
 20
3.683635
 42
0.131671
  0
VERTEX
  8
0
 10
0.678328
 20
3.532332
 42
0.10924
  0
VERTEX
  8
0
 10
0.571119
 20
3.303217
 42
0.136257
  0
VERTEX
  8
0
 10
0.559015
 20
3.070644
 42
0.050933
  0
VERTEX
  8
0
 10
0.633369
 20
2.853633
 42
0.093618
  0
VERTEX
  8
0
 10
0.695059
 20
2.750105
 42
0.060349
  0
VERTEX
  8
0
 10
0.788857
 20
2.66713
 42
0.041096
  0
VERTEX
  8
0
 10
1.021169
 20
2.539658
 42
-0.011545
  0
VERTEX
  8
0
 10
1.135982
 20
2.482438
 42
-0.0809
  0
VERTEX
  8
0
 10
1.269637
 20
2.461202
 42
-0.028277
  0
VERTEX
  8
0
 10
1.391783
 20
2.412436
 42
0.061284
  0
VERTEX
  8
0
 10
1.567121
 20
2.351021
 42
0.094775
  0
VERTEX
  8
0
 10
1.738348
 20
2.30145
 42
0.029297
  0
VERTEX
  8
0
 10
1.923247
 20
2.294789
 42
-0.039948
  0
VERTEX
  8
0
 10
2.136594
 20
2.284158
 42
-0.043982
  0
VERTEX
  8
0
 10
2.312846
 20
2.300821
 42
-0.012879
  0
VERTEX
  8
0
 10
2.499929
 20
2.297929
 42
0.013348
  0
VERTEX
  8
0
 10
2.678935
 20
2.295202
 42
0.051095
  0
VERTEX
  8
0
 10
2.835181
 20
2.311826
 42
0.098136
  0
VERTEX
  8
0
 10
3.022795
 20
2.28099
 42
0.041878
  0
VERTEX
  8
0
 10
3.215597
 20
2.300299
 42
-0.08533
  0
VERTEX
  8
0
 10
3.363053
 20
2.327831
 42
-0.030472
  0
VERTEX
  8
0
 10
3.508934
 20
2.319959
 42
0.031277
  0
VERTEX
  8
0
 10
3.665182
 20
2.311826
 42
-0.015612
  0
VERTEX
  8
0
 10
3.73295
 20
2.315823
 42
0.038348
  0
VERTEX
  8
0
 10
3.841461
 20
2.325476
 42
0.145038
  0
VERTEX
  8
0
 10
3.930321
 20
2.36716
 42
-0.156602
  0
VERTEX
  8
0
 10
3.979461
 20
2.380054
 42
-0.066161
  0
VERTEX
  8
0
 10
4.023478
 20
2.369642
 42
0.208873
  0
VERTEX
  8
0
 10
4.11246
 20
2.36716
 42
-0.114479
  0
VERTEX
  8
0
 10
4.238228
 20
2.442953
 42
-0.026243
  0
VERTEX
  8
0
 10
4.401933
 20
2.491863
 42
0.058611
  0
VERTEX
  8
0
 10
4.571295
 20
2.548404
 42
0.197171
  0
VERTEX
  8
0
 10
4.606733
 20
2.586843
 42
0.240478
  0
VERTEX
  8
0
 10
4.589712
 20
2.639215
 42
-0.129986
  0
VERTEX
  8
0
 10
4.687513
 20
2.718636
 42
0.08206
  0
VERTEX
  8
0
 10
4.77646
 20
2.782161
 42
0.099033
  0
VERTEX
  8
0
 10
4.805275
 20
2.813078
 42
0.234542
  0
VERTEX
  8
0
 10
4.807488
 20
2.836349
 42
0.144908
  0
VERTEX
  8
0
 10
4.765292
 20
2.871488
 42
-0.051066
  0
VERTEX
  8
0
 10
4.727949
 20
2.896906
 42
-0.208277
  0
VERTEX
  8
0
 10
4.7096
 20
2.932021
 42
-0.198652
  0
VERTEX
  8
0
 10
4.744868
 20
2.976743
 42
-0.110919
  0
VERTEX
  8
0
 10
4.788542
 20
2.983503
 42
0.116211
  0
VERTEX
  8
0
 10
4.838711
 20
2.991967
 42
0.100315
  0
VERTEX
  8
0
 10
4.88026
 20
3.090788
 42
-0.138517
  0
VERTEX
  8
0
 10
4.930933
 20
3.197161
 42
-0.064541
  0
VERTEX
  8
0
 10
4.975091
 20
3.34475
 42
0.043667
  0
VERTEX
  8
0
 10
5.013935
 20
3.462301
 42
0.056846
  0
VERTEX
  8
0
 10
5.020384
 20
3.513504
 42
-0.145601
  0
VERTEX
  8
0
 10
5.03699
 20
3.584496
 42
0.173842
  0
VERTEX
  8
0
 10
5.111882
 20
3.535283
 42
-0.103674
  0
VERTEX
  8
0
 10
5.175324
 20
3.501496
 42
0.223892
  0
VERTEX
  8
0
 10
5.171624
 20
3.447694
 42
0.087623
  0
VERTEX
  8
0
 10
5.201648
 20
3.40706
 42
-0.192156
  0
VERTEX
  8
0
 10
5.242185
 20
3.330883
 42
0.241795
  0
VERTEX
  8
0
 10
5.309046
 20
3.268633
 42
0.246834
  0
VERTEX
  8
0
 10
5.324624
 20
3.202877
 42
0.084694
  0
VERTEX
  8
0
 10
5.379041
 20
3.164767
 42
-0.061914
  0
VERTEX
  8
0
 10
5.427954
 20
3.132512
 42
-0.203797
  0
VERTEX
  8
0
 10
5.451992
 20
3.081883
 42
-0.204436
  0
VERTEX
  8
0
 10
5.50637
 20
3.054837
 42
-0.074443
  0
VERTEX
  8
0
 10
5.534346
 20
3.004402
 42
0.062014
  0
VERTEX
  8
0
 10
5.558619
 20
2.958862
 42
0.190078
  0
VERTEX
  8
0
 10
5.601853
 20
2.932021
 42
0.110909
  0
VERTEX
  8
0
 10
5.854311
 20
2.791095
 42
0.059234
  0
VERTEX
  8
0
 10
6.148268
 20
2.738356
 42
-0.00239
  0
VERTEX
  8
0
 10
6.174082
 20
2.736943
 42
0.043105
  0
VERTEX
  8
0
 10
6.406981
 20
2.738955
 42
0.055979
  0
VERTEX
  8
0
 10
6.53929
 20
2.768009
 42
0.097645
  0
VERTEX
  8
0
 10
6.653189
 20
2.832882
 42
0.305791
  0
VERTEX
  8
0
 10
6.693075
 20
2.889382
 42
0.064386
  0
VERTEX
  8
0
 10
6.686739
 20
2.972461
 42
-0.000592
  0
VERTEX
  8
0
 10
6.685465
 20
2.980439
 42
0.07426
  0
VERTEX
  8
0
 10
6.629267
 20
3.113008
 42
0.180683
  0
VERTEX
  8
0
 10
6.519465
 20
3.197161
 42
0.176225
  0
VERTEX
  8
0
 10
6.413986
 20
3.420801
 42
0.133827
  0
VERTEX
  8
0
 10
6.194381
 20
3.540689
 42
-0.224708
  0
VERTEX
  8
0
 10
6.13778
 20
3.620706
 42
-0.061844
  0
VERTEX
  8
0
 10
6.132518
 20
3.723639
 42
0.030099
  0
VERTEX
  8
0
 10
6.132132
 20
3.782774
 42
-0.162113
  0
VERTEX
  8
0
 10
6.114276
 20
3.856487
 42
-0.059761
  0
VERTEX
  8
0
 10
6.131194
 20
3.927107
 42
0.113192
  0
VERTEX
  8
0
 10
6.148268
 20
4.031774
 42
-0.204129
  0
VERTEX
  8
0
 10
6.195365
 20
4.123626
 42
0.076509
  0
VERTEX
  8
0
 10
6.229078
 20
4.166676
 42
0.155688
  0
VERTEX
  8
0
 10
6.238187
 20
4.232358
 42
0.226474
  0
VERTEX
  8
0
 10
6.283189
 20
4.283305
 42
-0.098976
  0
VERTEX
  8
0
 10
6.305049
 20
4.319969
 42
0.128863
  0
VERTEX
  8
0
 10
6.330415
 20
4.305741
 42
0.297904
  0
VERTEX
  8
0
 10
6.344985
 20
4.31157
 42
0.113273
  0
VERTEX
  8
0
 10
6.355934
 20
4.354996
 42
-0.036916
  0
VERTEX
  8
0
 10
6.360382
 20
4.382219
 42
0.191025
  0
VERTEX
  8
0
 10
6.37
 20
4.440164
 42
-0.111989
  0
VERTEX
  8
0
 10
6.372248
 20
4.476911
 42
-0.254651
  0
VERTEX
  8
0
 10
6.382678
 20
4.484764
 42
-0.126092
  0
VERTEX
  8
0
 10
6.404187
 20
4.481358
 42
0.230434
  0
VERTEX
  8
0
 10
6.443638
 20
4.524583
 42
0.051896
  0
VERTEX
  8
0
 10
6.458492
 20
4.59005
 42
-0.000589
  0
VERTEX
  8
0
 10
6.459521
 20
4.596636
 42
-0.221208
  0
VERTEX
  8
0
 10
6.486976
 20
4.581733
 42
-0.072439
  0
VERTEX
  8
0
 10
6.500547
 20
4.554103
 42
0.077086
  0
VERTEX
  8
0
 10
6.512654
 20
4.529493
 42
0.274937
  0
VERTEX
  8
0
 10
6.535604
 20
4.520553
 42
-0.065882
  0
VERTEX
  8
0
 10
6.589158
 20
4.612891
 42
0.107465
  0
VERTEX
  8
0
 10
6.646271
 20
4.723442
 42
-0.398306
  0
VERTEX
  8
0
 10
6.673938
 20
4.753703
 42
-0.431453
  0
VERTEX
  8
0
 10
6.701604
 20
4.730358
 42
-0.185517
  0
VERTEX
  8
0
 10
6.709662
 20
4.703559
 42
-0.044334
  0
VERTEX
  8
0
 10
6.705375
 20
4.671839
 42
0.134103
  0
VERTEX
  8
0
 10
6.703682
 20
4.635362
 42
0.269998
  0
VERTEX
  8
0
 10
6.715055
 20
4.6277
 42
0.102722
  0
VERTEX
  8
0
 10
6.740799
 20
4.631219
 42
-0.033541
  0
VERTEX
  8
0
 10
6.785753
 20
4.689412
 42
0.02844
  0
VERTEX
  8
0
 10
6.834073
 20
4.751407
 42
0.104358
  0
VERTEX
  8
0
 10
6.862994
 20
4.817971
 42
-0.063752
  0
VERTEX
  8
0
 10
6.873178
 20
4.843931
 42
-0.269807
  0
VERTEX
  8
0
 10
6.882602
 20
4.851182
 42
-0.188853
  0
VERTEX
  8
0
 10
6.901689
 20
4.832329
 42
0.063475
  0
VERTEX
  8
0
 10
6.919087
 20
4.811074
 42
0.302074
  0
VERTEX
  8
0
 10
6.941383
 20
4.806443
 42
0.299095
  0
VERTEX
  8
0
 10
6.957847
 20
4.817963
 42
0.073785
  0
VERTEX
  8
0
 10
6.962597
 20
4.841127
 42
-0.094462
  0
VERTEX
  8
0
 10
6.96905
 20
4.868693
 42
-0.218002
  0
VERTEX
  8
0
 10
6.996139
 20
4.851678
 42
-0.072387
  0
VERTEX
  8
0
 10
7.008387
 20
4.822096
 42
0.088626
  0
VERTEX
  8
0
 10
7.022526
 20
4.78984
 42
0.236904
  0
VERTEX
  8
0
 10
7.056661
 20
4.774164
 42
-0.092935
  0
VERTEX
  8
0
 10
7.109159
 20
4.842475
 42
0.120017
  0
VERTEX
  8
0
 10
7.162717
 20
4.91711
 42
0.113165
  0
VERTEX
  8
0
 10
7.166406
 20
4.939281
 42
-0.281288
  0
VERTEX
  8
0
 10
7.178856
 20
4.967832
 42
0.186822
  0
VERTEX
  8
0
 10
7.23838
 20
4.983552
 42
0.054495
  0
VERTEX
  8
0
 10
7.284089
 20
5.024395
 42
-0.004492
  0
VERTEX
  8
0
 10
7.294132
 20
5.034693
 42
-0.175569
  0
VERTEX
  8
0
 10
7.341929
 20
5.100396
 42
0.057366
  0
VERTEX
  8
0
 10
7.374825
 20
5.133465
 42
0.17341
  0
VERTEX
  8
0
 10
7.388662
 20
5.177637
 42
0.069115
  0
VERTEX
  8
0
 10
7.371077
 20
5.256834
 42
-0.048799
  0
VERTEX
  8
0
 10
7.355137
 20
5.320251
 42
-0.153257
  0
VERTEX
  8
0
 10
7.365606
 20
5.382833
 42
-0.189487
  0
VERTEX
  8
0
 10
7.393514
 20
5.34671
 42
0.18574
  0
VERTEX
  8
0
 10
7.416329
 20
5.315972
 42
0.017747
  0
VERTEX
  8
0
 10
7.399906
 20
5.406442
 42
-0.062792
  0
VERTEX
  8
0
 10
7.377133
 20
5.599556
 42
-0.068737
  0
VERTEX
  8
0
 10
7.384831
 20
5.626478
 42
-0.350176
  0
VERTEX
  8
0
 10
7.393412
 20
5.632911
 42
-0.151276
  0
VERTEX
  8
0
 10
7.413035
 20
5.61004
 42
0.041556
  0
VERTEX
  8
0
 10
7.427901
 20
5.588856
 42
0.278233
  0
VERTEX
  8
0
 10
7.443994
 20
5.581111
 42
0.131719
  0
VERTEX
  8
0
 10
7.458372
 20
5.619032
 42
0.031736
  0
VERTEX
  8
0
 10
7.461256
 20
5.665802
 42
-0.085318
  0
VERTEX
  8
0
 10
7.46846
 20
5.725461
 42
-0.424082
  0
VERTEX
  8
0
 10
7.510857
 20
5.7425
 42
0.090591
  0
VERTEX
  8
0
 10
7.550051
 20
5.940778
 42
0.249456
  0
VERTEX
  8
0
 10
7.605602
 20
6.002097
 42
0.0677
  0
VERTEX
  8
0
 10
7.614107
 20
6.093604
 42
-0.052817
  0
VERTEX
  8
0
 10
7.620383
 20
6.177332
 42
-0.199594
  0
VERTEX
  8
0
 10
7.660718
 20
6.240501
 42
0.162086
  0
VERTEX
  8
0
 10
7.669308
 20
6.28444
 42
0.053661
  0
VERTEX
  8
0
 10
7.658543
 20
6.326992
 42
-0.094062
  0
VERTEX
  8
0
 10
7.648962
 20
6.373412
 42
-0.275123
  0
VERTEX
  8
0
 10
7.676857
 20
6.411112
 42
-0.035463
  0
VERTEX
  8
0
 10
7.680683
 20
6.450081
 42
0.057488
  0
VERTEX
  8
0
 10
7.683985
 20
6.496397
 42
0.2139
  0
VERTEX
  8
0
 10
7.665329
 20
6.533308
 42
-0.359852
  0
VERTEX
  8
0
 10
7.681468
 20
6.600169
 42
0.194755
  0
VERTEX
  8
0
 10
7.692522
 20
6.65116
 42
0.059147
  0
VERTEX
  8
0
 10
7.676643
 20
6.70237
 42
-0.026153
  0
VERTEX
  8
0
 10
7.665329
 20
6.733892
 42
0.20718
  0
VERTEX
  8
0
 10
7.699336
 20
6.762308
 42
0.084
  0
VERTEX
  8
0
 10
7.708112
 20
6.802588
 42
-0.040765
  0
VERTEX
  8
0
 10
7.713699
 20
6.836531
 42
-0.040751
  0
VERTEX
  8
0
 10
7.833109
 20
6.698642
 42
0.002454
  0
VERTEX
  8
0
 10
7.86075
 20
6.663451
 42
-0.841774
  0
SEQEND
  8
0
  0
POLYLINE
  8
0
 66
1
 70
1
  0
VERTEX
  8
0
 10
7.676857
 20
7.275697
 42
0.207482
  0
VERTEX
  8
0
 10
7.636798
 20
7.23391
 42
0.133098
  0
VERTEX
  8
0
 10
7.63305
 20
7.176558
 42
-0.204398
  0
VERTEX
  8
0
 10
7.644943
 20
7.152701
 42
-0.048216
  0
VERTEX
  8
0
 10
7.644461
 20
7.120751
 42
0.065826
  0
VERTEX
  8
0
 10
7.644765
 20
7.082302
 42
0.247115
  0
VERTEX
  8
0
 10
7.665329
 20
7.054364
 42
-0.01593
  0
VERTEX
  8
0
 10
7.658095
 20
7.035667
 42
0.090981
  0
VERTEX
  8
0
 10
7.64254
 20
6.97963
 42
0.364309
  0
VERTEX
  8
0
 10
7.676857
 20
6.936781
 42
-0.106164
  0
VERTEX
  8
0
 10
7.672674
 20
6.918286
 42
-0.576317
  0
VERTEX
  8
0
 10
7.653801
 20
6.916031
 42
-0.003036
  0
VERTEX
  8
0
 10
7.605518
 20
6.948409
 42
0.02161
  0
VERTEX
  8
0
 10
7.483807
 20
7.0258
 42
0.061054
  0
VERTEX
  8
0
 10
7.349467
 20
7.082031
 42
-0.250187
  0
VERTEX
  8
0
 10
7.365546
 20
7.143119
 42
0.058439
  0
VERTEX
  8
0
 10
7.384049
 20
7.176558
 42
0.181291
  0
VERTEX
  8
0
 10
7.454117
 20
7.20035
 42
0.057139
  0
VERTEX
  8
0
 10
7.50561
 20
7.254804
 42
-0.011758
  0
VERTEX
  8
0
 10
7.526996
 20
7.28031
 42
-0.093312
  0
VERTEX
  8
0
 10
7.548321
 20
7.364463
 42
-0.226478
  0
VERTEX
  8
0
 10
7.614607
 20
7.414032
 42
-0.284809
  0
VERTEX
  8
0
 10
7.638815
 20
7.435647
 42
-0.297713
  0
VERTEX
  8
0
 10
7.651568
 20
7.433161
 42
-0.258359
  0
VERTEX
  8
0
 10
7.64919
 20
7.414032
 42
0.160447
  0
VERTEX
  8
0
 10
7.625622
 20
7.397125
 42
-0.035507
  0
VERTEX
  8
0
 10
7.614607
 20
7.386365
 42
0.159086
  0
VERTEX
  8
0
 10
7.645956
 20
7.331737
 42
-0.172902
  0
SEQEND
  8
0
  0
POLYLINE
  8
0
 66
1
 70
1
  0
VERTEX
  8
0
 10
5.076185
 20
8.038839
 42
0.004594
  0
VERTEX
  8
0
 10
5.066816
 20
8.040413
 42
-0.060273
  0
VERTEX
  8
0
 10
5.024105
 20
8.050875
 42
-0.461574
  0
VERTEX
  8
0
 10
5.009324
 20
8.078033
 42
-0.148349
  0
VERTEX
  8
0
 10
5.06687
 20
8.096545
 42
0.17896
  0
VERTEX
  8
0
 10
5.1246
 20
8.117228
 42
0.337073
  0
VERTEX
  8
0
 10
5.107253
 20
8.156263
 42
0.063218
  0
VERTEX
  8
0
 10
5.059949
 20
8.178547
 42
-0.026262
  0
VERTEX
  8
0
 10
5.037952
 20
8.18753
 42
-0.254751
  0
VERTEX
  8
0
 10
5.028864
 20
8.196408
 42
-0.257436
  0
VERTEX
  8
0
 10
5.040529
 20
8.206963
 42
-0.040017
  0
VERTEX
  8
0
 10
5.080796
 20
8.220978
 42
-0.039102
  0
VERTEX
  8
0
 10
5.150215
 20
8.216026
 42
0.097403
  0
VERTEX
  8
0
 10
5.262935
 20
8.216367
 42
0.423022
  0
VERTEX
  8
0
 10
5.301794
 20
8.206978
 42
0.098802
  0
VERTEX
  8
0
 10
5.329327
 20
8.241914
 42
-0.030042
  0
VERTEX
  8
0
 10
5.341324
 20
8.260172
 42
-0.185232
  0
VERTEX
  8
0
 10
5.366437
 20
8.310809
 42
-0.070592
  0
VERTEX
  8
0
 10
5.411134
 20
8.338595
 42
0.069303
  0
VERTEX
  8
0
 10
5.455056
 20
8.365777
 42
0.185698
  0
VERTEX
  8
0
 10
5.479658
 20
8.414644
 42
0.220082
  0
VERTEX
  8
0
 10
5.467698
 20
8.42708
 42
0.178742
  0
VERTEX
  8
0
 10
5.457037
 20
8.423621
 42
-0.307156
  0
VERTEX
  8
0
 10
5.435853
 20
8.421561
 42
-0.195196
  0
VERTEX
  8
0
 10
5.092324
 20
8.564507
 42
0.190857
  0
VERTEX
  8
0
 10
5.07627
 20
8.554602
 42
-0.046601
  0
VERTEX
  8
0
 10
5.069268
 20
8.548368
 42
0.157184
  0
VERTEX
  8
0
 10
5.102935
 20
8.490001
 42
0.056372
  0
VERTEX
  8
0
 10
5.156381
 20
8.453522
 42
-0.061442
  0
VERTEX
  8
0
 10
5.21083
 20
8.41587
 42
-0.170521
  0
VERTEX
  8
0
 10
5.242185
 20
8.3547
 42
-0.124899
  0
VERTEX
  8
0
 10
5.202297
 20
8.356528
 42
0.296187
  0
VERTEX
  8
0
 10
5.152268
 20
8.347783
 42
0.207998
  0
VERTEX
  8
0
 10
5.1825
 20
8.320579
 42
0.062833
  0
VERTEX
  8
0
 10
5.223995
 20
8.313027
 42
-0.107141
  0
VERTEX
  8
0
 10
5.270862
 20
8.302045
 42
-0.289646
  0
VERTEX
  8
0
 10
5.290601
 20
8.255561
 42
-0.203516
  0
VERTEX
  8
0
 10
5.22334
 20
8.256833
 42
-0.055117
  0
VERTEX
  8
0
 10
5.160897
 20
8.292796
 42
0.044539
  0
VERTEX
  8
0
 10
5.115378
 20
8.320117
 42
-0.254447
  0
VERTEX
  8
0
 10
5.013935
 20
8.615229
 42
-0.34194
  0
VERTEX
  8
0
 10
5.042142
 20
8.63199
 42
-0.060792
  0
VERTEX
  8
0
 10
5.080853
 20
8.626061
 42
0.004056
  0
VERTEX
  8
0
 10
5.087712
 20
8.624451
 42
-0.002272
  0
VERTEX
  8
0
 10
5.190727
 20
8.606938
 42
0.018047
  0
VERTEX
  8
0
 10
5.475046
 20
8.564507
 42
-0.089349
  0
VERTEX
  8
0
 10
5.510749
 20
8.514855
 42
0.144825
  0
VERTEX
  8
0
 10
5.551131
 20
8.465367
 42
0.164405
  0
VERTEX
  8
0
 10
5.53726
 20
8.54468
 42
-0.043729
  0
VERTEX
  8
0
 10
5.520973
 20
8.594833
 42
-0.135747
  0
VERTEX
  8
0
 10
5.523464
 20
8.647506
 42
0.329135
  0
VERTEX
  8
0
 10
5.493661
 20
8.651439
 42
0.078792
  0
VERTEX
  8
0
 10
5.467122
 20
8.629411
 42
-0.031182
  0
VERTEX
  8
0
 10
5.451992
 20
8.615229
 42
-0.310489
  0
VERTEX
  8
0
 10
5.435853
 20
8.608313
  0
VERTEX
  8
0
 10
5.435853
 20
8.608313
 42
-0.310554
  0
VERTEX
  8
0
 10
5.440462
 20
8.663646
 42
-0.150088
  0
VERTEX
  8
0
 10
5.48204
 20
8.693921
 42
-0.051758
  0
VERTEX
  8
0
 10
5.5314
 20
8.704475
 42
0.048147
  0
VERTEX
  8
0
 10
5.578797
 20
8.714368
 42
0.082301
  0
VERTEX
  8
0
 10
5.640245
 20
8.757865
 42
-0.070243
  0
VERTEX
  8
0
 10
5.693791
 20
8.797241
 42
-0.146893
  0
VERTEX
  8
0
 10
5.772464
 20
8.808896
 42
0.095421
  0
VERTEX
  8
0
 10
5.839861
 20
8.833712
 42
-0.262727
  0
VERTEX
  8
0
 10
5.94999
 20
8.845785
 42
-0.041763
  0
VERTEX
  8
0
 10
6.000523
 20
8.853513
 42
-0.126977
  0
VERTEX
  8
0
 10
6.045139
 20
8.848958
 42
0.093431
  0
VERTEX
  8
0
 10
6.095002
 20
8.837362
 42
0.041382
  0
VERTEX
  8
0
 10
6.180478
 20
8.836477
 42
0.051084
  0
VERTEX
  8
0
 10
6.277096
 20
8.852567
 42
0.094454
  0
VERTEX
  8
0
 10
6.360382
 20
8.891896
 42
0.017886
  0
VERTEX
  8
0
 10
6.538778
 20
8.885579
 42
-0.030841
  0
VERTEX
  8
0
 10
6.768467
 20
8.873451
 42
0.268837
  0
VERTEX
  8
0
 10
6.814397
 20
8.834916
 42
0.1003
  0
VERTEX
  8
0
 10
6.870039
 20
8.843434
 42
-0.099476
  0
VERTEX
  8
0
 10
6.926287
 20
8.852063
 42
-0.264732
  0
VERTEX
  8
0
 10
6.973661
 20
8.813507
 42
0.165945
  0
VERTEX
  8
0
 10
7.017976
 20
8.822104
 42
-0.131536
  0
VERTEX
  8
0
 10
7.052143
 20
8.830474
 42
-0.23657
  0
VERTEX
  8
0
 10
7.063335
 20
8.821603
 42
-0.110183
  0
VERTEX
  8
0
 10
7.068189
 20
8.797368
 42
-0.054275
  0
VERTEX
  8
0
 10
6.965594
 20
8.733966
 42
0.054275
  0
VERTEX
  8
0
 10
6.862994
 20
8.670562
 42
0.389507
  0
VERTEX
  8
0
 10
6.866452
 20
8.6504
 42
0.130727
  0
VERTEX
  8
0
 10
6.886012
 20
8.650779
 42
-0.071083
  0
VERTEX
  8
0
 10
6.902187
 20
8.652118
 42
0.014693
  0
VERTEX
  8
0
 10
6.98357
 20
8.701285
 42
-0.01669
  0
VERTEX
  8
0
 10
7.08309
 20
8.760918
 42
-0.055423
  0
VERTEX
  8
0
 10
7.186925
 20
8.804834
 42
-0.268695
  0
VERTEX
  8
0
 10
7.393271
 20
8.762785
 42
-0.133547
  0
VERTEX
  8
0
 10
7.416007
 20
8.657187
 42
-0.043069
  0
VERTEX
  8
0
 10
7.400059
 20
8.548535
 42
0.044819
  0
VERTEX
  8
0
 10
7.384049
 20
8.4377
 42
-0.463841
  0
VERTEX
  8
0
 10
7.330925
 20
8.485703
 42
-0.068833
  0
VERTEX
  8
0
 10
7.339184
 20
8.582555
 42
0.019769
  0
VERTEX
  8
0
 10
7.344856
 20
8.61984
 42
-0.072807
  0
VERTEX
  8
0
 10
7.350464
 20
8.667696
 42
0.087403
  0
VERTEX
  8
0
 10
7.355699
 20
8.720854
 42
0.299925
  0
VERTEX
  8
0
 10
7.3218
 20
8.758174
 42
0.098421
  0
VERTEX
  8
0
 10
7.18353
 20
8.712609
 42
0.032805
  0
VERTEX
  8
0
 10
7.063183
 20
8.63328
 42
-0.067573
  0
VERTEX
  8
0
 10
6.902187
 20
8.53684
 42
-0.097742
  0
VERTEX
  8
0
 10
6.89393
 20
8.528424
 42
0.112546
  0
VERTEX
  8
0
 10
6.885517
 20
8.51958
 42
0.388788
  0
VERTEX
  8
0
 10
6.890661
 20
8.509172
 42
0.104534
  0
VERTEX
  8
0
 10
6.993323
 20
8.517448
 42
0.034625
  0
VERTEX
  8
0
 10
7.089525
 20
8.55382
 42
-0.017277
  0
VERTEX
  8
0
 10
7.1558
 20
8.580646
 42
-0.372824
  0
VERTEX
  8
0
 10
7.191536
 20
8.55442
 42
-0.205524
  0
VERTEX
  8
0
 10
7.178856
 20
8.509172
 42
-0.043833
  0
VERTEX
  8
0
 10
7.205831
 20
8.486088
 42
0.084584
  0
VERTEX
  8
0
 10
7.238936
 20
8.46034
 42
0.27763
  0
VERTEX
  8
0
 10
7.277994
 20
8.465367
 42
0.244875
  0
VERTEX
  8
0
 10
7.331271
 20
8.409364
 42
0.072014
  0
VERTEX
  8
0
 10
7.408898
 20
8.39653
 42
-0.013492
  0
VERTEX
  8
0
 10
7.439383
 20
8.393894
 42
0.459691
  0
VERTEX
  8
0
 10
7.426858
 20
8.418736
 42
-0.302789
  0
VERTEX
  8
0
 10
7.411717
 20
8.4377
 42
0.166187
  0
VERTEX
  8
0
 10
7.416328
 20
8.467674
 42
-0.166179
  0
VERTEX
  8
0
 10
7.420939
 20
8.497646
 42
0.088569
  0
VERTEX
  8
0
 10
7.447887
 20
8.482927
 42
-0.171876
  0
VERTEX
  8
0
 10
7.471571
 20
8.467526
 42
-0.265024
  0
VERTEX
  8
0
 10
7.460135
 20
8.430783
 42
0.234656
  0
VERTEX
  8
0
 10
7.47093
 20
8.398536
 42
0.065682
  0
VERTEX
  8
0
 10
7.499487
 20
8.37696
 42
-0.024089
  0
VERTEX
  8
0
 10
7.515468
 20
8.366228
 42
-0.188022
  0
VERTEX
  8
0
 10
7.541405
 20
8.361905
 42
-0.34335
  0
VERTEX
  8
0
 10
7.543133
 20
8.338561
 42
0.14449
  0
VERTEX
  8
0
 10
7.525266
 20
8.271124
 42
0.086892
  0
VERTEX
  8
0
 10
7.538524
 20
8.200228
 42
-0.270037
  0
VERTEX
  8
0
 10
7.580493
 20
8.159953
 42
-0.103075
  0
VERTEX
  8
0
 10
7.577588
 20
8.106922
 42
0.124287
  0
VERTEX
  8
0
 10
7.575793
 20
8.054621
 42
0.166841
  0
VERTEX
  8
0
 10
7.591222
 20
8.035019
 42
0.106028
  0
VERTEX
  8
0
 10
7.626135
 20
8.0227
 42
0.103699
  0
VERTEX
  8
0
 10
7.603933
 20
7.991503
 42
0.167595
  0
VERTEX
  8
0
 10
7.602406
 20
7.966235
 42
0.129906
  0
VERTEX
  8
0
 10
7.633906
 20
7.925495
 42
-0.138844
  0
VERTEX
  8
0
 10
7.666139
 20
7.882827
 42
-0.169373
  0
VERTEX
  8
0
 10
7.663303
 20
7.855836
 42
-0.098738
  0
VERTEX
  8
0
 10
7.637662
 20
7.822115
 42
-0.000217
  0
VERTEX
  8
0
 10
7.638319
 20
7.819924
 42
0.192267
  0
VERTEX
  8
0
 10
7.676857
 20
7.75756
 42
0.145849
  0
VERTEX
  8
0
 10
7.676857
 20
7.59156
 42
0.021328
  0
VERTEX
  8
0
 10
7.656111
 20
7.546416
 42
-0.070148
  0
VERTEX
  8
0
 10
7.608907
 20
7.459048
 42
-0.244398
  0
VERTEX
  8
0
 10
7.522385
 20
7.418643
 42
0.297149
  0
VERTEX
  8
0
 10
7.50504
 20
7.375282
 42
-0.125866
  0
VERTEX
  8
0
 10
7.499329
 20
7.335643
 42
-0.0994
  0
VERTEX
  8
0
 10
7.454658
 20
7.272816
 42
-0.157436
  0
VERTEX
  8
0
 10
7.384049
 20
7.241114
 42
-0.039808
  0
VERTEX
  8
0
 10
7.368876
 20
7.240893
 42
0.088406
  0
VERTEX
  8
0
 10
7.349364
 20
7.239495
 42
0.290464
  0
VERTEX
  8
0
 10
7.337939
 20
7.224976
 42
0.67348
  0
VERTEX
  8
0
 10
7.338536
 20
7.203478
 42
-0.473282
  0
VERTEX
  8
0
 10
7.344856
 20
7.181171
 42
-0.090982
  0
VERTEX
  8
0
 10
7.321179
 20
7.1137
 42
0.009839
  0
VERTEX
  8
0
 10
7.313717
 20
7.098151
 42
-0.030565
  0
VERTEX
  8
0
 10
7.176835
 20
7.131347
 42
0.02131
  0
VERTEX
  8
0
 10
7.057714
 20
7.161692
 42
0.071719
  0
VERTEX
  8
0
 10
6.941383
 20
7.169643
 42
-0.032205
  0
VERTEX
  8
0
 10
6.937707
 20
7.178678
 42
0.122809
  0
VERTEX
  8
0
 10
6.929856
 20
7.192697
 42
-0.340229
  0
VERTEX
  8
0
 10
6.910318
 20
7.168969
 42
-0.093082
  0
VERTEX
  8
0
 10
6.877927
 20
7.170623
 42
0.098606
  0
VERTEX
  8
0
 10
6.852068
 20
7.17207
 42
0.428377
  0
VERTEX
  8
0
 10
6.84375
 20
7.152778
 42
0.298829
  0
VERTEX
  8
0
 10
6.883536
 20
7.140188
 42
-0.142538
  0
VERTEX
  8
0
 10
6.905163
 20
7.138114
 42
-0.34124
  0
VERTEX
  8
0
 10
6.906799
 20
7.114308
 42
0.296004
  0
VERTEX
  8
0
 10
6.876036
 20
7.124215
 42
0.115216
  0
VERTEX
  8
0
 10
6.853444
 20
7.106271
 42
-0.151313
  0
VERTEX
  8
0
 10
6.831222
 20
7.089759
 42
-0.298779
  0
VERTEX
  8
0
 10
6.80305
 20
7.109697
 42
0.335818
  0
VERTEX
  8
0
 10
6.793769
 20
7.074754
 42
-0.344617
  0
VERTEX
  8
0
 10
6.779994
 20
7.031308
 42
-0.148431
  0
VERTEX
  8
0
 10
6.706199
 20
7.009426
 42
0.047214
  0
VERTEX
  8
0
 10
6.669328
 20
7.003642
 42
0.356387
  0
VERTEX
  8
0
 10
6.691545
 20
6.977429
 42
0.082485
  0
VERTEX
  8
0
 10
6.729797
 20
6.977765
 42
-0.146608
  0
VERTEX
  8
0
 10
6.756961
 20
6.976983
 42
-0.331918
  0
VERTEX
  8
0
 10
6.758503
 20
6.967798
 42
-0.074613
  0
VERTEX
  8
0
 10
6.747715
 20
6.948308
 42
-0.186693
  0
VERTEX
  8
0
 10
6.634167
 20
6.899862
 42
-0.074472
  0
VERTEX
  8
0
 10
6.519788
 20
6.920523
 42
0.01128
  0
VERTEX
  8
0
 10
6.46875
 20
6.934028
 42
-0.094137
  0
VERTEX
  8
0
 10
6.361476
 20
6.942683
 42
-0.288901
  0
VERTEX
  8
0
 10
6.30821
 20
6.991753
 42
-0.072932
  0
VERTEX
  8
0
 10
6.299368
 20
7.054423
 42
-0.126956
  0
VERTEX
  8
0
 10
6.309724
 20
7.105012
 42
-0.098205
  0
VERTEX
  8
0
 10
6.341264
 20
7.184372
 42
-0.171737
  0
VERTEX
  8
0
 10
6.415715
 20
7.236504
 42
0.416018
  0
VERTEX
  8
0
 10
6.435234
 20
7.248057
 42
0.279778
  0
VERTEX
  8
0
 10
6.420326
 20
7.268782
 42
0.057524
  0
VERTEX
  8
0
 10
6.401986
 20
7.282156
 42
-0.285373
  0
VERTEX
  8
0
 10
6.376521
 20
7.314893
 42
-0.24154
  0
VERTEX
  8
0
 10
6.39742
 20
7.345284
 42
-0.080116
  0
VERTEX
  8
0
 10
6.431615
 20
7.355273
 42
0.021193
  0
VERTEX
  8
0
 10
6.447993
 20
7.358699
 42
0.550636
  0
VERTEX
  8
0
 10
6.491799
 20
7.374837
 42
0.048707
  0
VERTEX
  8
0
 10
6.441953
 20
7.436265
 42
-0.102105
  0
VERTEX
  8
0
 10
6.376521
 20
7.52931
 42
-0.171972
  0
VERTEX
  8
0
 10
6.463712
 20
7.533675
 42
-0.060945
  0
VERTEX
  8
0
 10
6.540115
 20
7.497557
 42
0.072527
  0
VERTEX
  8
0
 10
6.623321
 20
7.459726
 42
0.191129
  0
VERTEX
  8
0
 10
6.720049
 20
7.473976
 42
0.144417
  0
VERTEX
  8
0
 10
6.816562
 20
7.54043
 42
0.052941
  0
VERTEX
  8
0
 10
6.875225
 20
7.635632
 42
-0.046463
  0
VERTEX
  8
0
 10
6.930184
 20
7.726493
 42
-0.129091
  0
VERTEX
  8
0
 10
7.017467
 20
7.794449
 42
0.364184
  0
VERTEX
  8
0
 10
7.005937
 20
7.822115
 42
-0.119182
  0
VERTEX
  8
0
 10
6.867605
 20
7.804248
 42
-0.091315
  0
VERTEX
  8
0
 10
6.729271
 20
7.845172
 42
-0.110002
  0
VERTEX
  8
0
 10
6.718699
 20
7.858541
 42
0.474559
  0
VERTEX
  8
0
 10
6.685465
 20
7.872839
 42
0.079551
  0
VERTEX
  8
0
 10
6.640853
 20
7.839487
 42
-0.087784
  0
VERTEX
  8
0
 10
6.5981
 20
7.807971
 42
-0.234356
  0
VERTEX
  8
0
 10
6.542521
 20
7.812893
 42
-0.149274
  0
VERTEX
  8
0
 10
6.523807
 20
7.88788
 42
0.053877
  0
VERTEX
  8
0
 10
6.517571
 20
7.936478
 42
0.199672
  0
VERTEX
  8
0
 10
6.491799
 20
7.971978
 42
0.007245
  0
VERTEX
  8
0
 10
6.479725
 20
7.919276
 42
-0.053477
  0
VERTEX
  8
0
 10
6.436994
 20
7.774035
 42
-0.180388
  0
VERTEX
  8
0
 10
6.337326
 20
7.667643
 42
0.239742
  0
VERTEX
  8
0
 10
6.315446
 20
7.638906
 42
0.068297
  0
VERTEX
  8
0
 10
6.314381
 20
7.601117
 42
-0.05297
  0
VERTEX
  8
0
 10
6.314271
 20
7.573115
 42
0.090807
  0
VERTEX
  8
0
 10
6.342409
 20
7.506079
 42
0.024124
  0
VERTEX
  8
0
 10
6.385948
 20
7.443725
 42
-0.062908
  0
VERTEX
  8
0
 10
6.420326
 20
7.390976
 42
0.144861
  0
VERTEX
  8
0
 10
6.380925
 20
7.367694
 42
0.043263
  0
VERTEX
  8
0
 10
6.35072
 20
7.328769
 42
-0.111573
  0
VERTEX
  8
0
 10
6.289001
 20
7.263143
 42
-0.351012
  0
VERTEX
  8
0
 10
6.120603
 20
7.28031
 42
-0.221292
  0
VERTEX
  8
0
 10
6.091223
 20
7.38482
 42
-0.076037
  0
VERTEX
  8
0
 10
6.124269
 20
7.477114
 42
0.026217
  0
VERTEX
  8
0
 10
6.140382
 20
7.513516
 42
0.14916
  0
VERTEX
  8
0
 10
6.14366
 20
7.540837
 42
0.16815
  0
VERTEX
  8
0
 10
6.133171
 20
7.576336
 42
0.055717
  0
VERTEX
  8
0
 10
6.107842
 20
7.603494
 42
-0.176697
  0
VERTEX
  8
0
 10
6.072186
 20
7.656115
 42
0.137899
  0
VERTEX
  8
0
 10
6.03971
 20
7.680476
 42
0.026104
  0
VERTEX
  8
0
 10
6.005247
 20
7.694786
 42
-0.000986
  0
VERTEX
  8
0
 10
6.003785
 20
7.695319
 42
-0.103195
  0
VERTEX
  8
0
 10
5.95292
 20
7.730487
 42
-0.028333
  0
VERTEX
  8
0
 10
5.910797
 20
7.77831
 42
-0.045705
  0
VERTEX
  8
0
 10
5.886388
 20
7.856742
 42
0.030953
  0
VERTEX
  8
0
 10
5.866992
 20
7.923561
  0
VERTEX
  8
0
 10
5.853792
 20
7.923561
 42
0.140618
  0
VERTEX
  8
0
 10
5.83695
 20
7.850476
 42
-0.053265
  0
VERTEX
  8
0
 10
5.831499
 20
7.803624
 42
-0.180035
  0
VERTEX
  8
0
 10
5.807047
 20
7.766782
 42
-0.083217
  0
VERTEX
  8
0
 10
5.74438
 20
7.767566
 42
-0.363699
  0
VERTEX
  8
0
 10
5.705603
 20
7.805978
 42
0.279113
  0
VERTEX
  8
0
 10
5.696145
 20
7.851499
 42
-0.073963
  0
VERTEX
  8
0
 10
5.684853
 20
7.872839
 42
0.199003
  0
VERTEX
  8
0
 10
5.669067
 20
7.845569
 42
0.050696
  0
VERTEX
  8
0
 10
5.667694
 20
7.808546
 42
-0.133614
  0
VERTEX
  8
0
 10
5.657185
 20
7.739115
 42
-0.130118
  0
VERTEX
  8
0
 10
5.625196
 20
7.684647
 42
-0.194752
  0
VERTEX
  8
0
 10
5.567268
 20
7.663032
 42
-0.069516
  0
VERTEX
  8
0
 10
5.542711
 20
7.673575
 42
0.063693
  0
VERTEX
  8
0
 10
5.518235
 20
7.684254
 42
0.259874
  0
VERTEX
  8
0
 10
5.495796
 20
7.679171
 42
0.281285
  0
VERTEX
  8
0
 10
5.531029
 20
7.63885
 42
0.056058
  0
VERTEX
  8
0
 10
5.588894
 20
7.622954
 42
-0.016984
  0
VERTEX
  8
0
 10
5.606464
 20
7.619226
 42
-0.042438
  0
VERTEX
  8
0
 10
5.636751
 20
7.552443
 42
0.057842
  0
VERTEX
  8
0
 10
5.673778
 20
7.475032
 42
0.156228
  0
VERTEX
  8
0
 10
5.744797
 20
7.418643
 42
0.120763
  0
VERTEX
  8
0
 10
5.897828
 20
7.406827
 42
0.159243
  0
VERTEX
  8
0
 10
6.028381
 20
7.469365
 42
-0.287418
  0
VERTEX
  8
0
 10
6.021814
 20
7.429876
 42
-0.063261
  0
VERTEX
  8
0
 10
5.987158
 20
7.397806
 42
0.142281
  0
VERTEX
  8
0
 10
5.956702
 20
7.365513
 42
0.295905
  0
VERTEX
  8
0
 10
5.963134
 20
7.350555
 42
0.091016
  0
VERTEX
  8
0
 10
5.993797
 20
7.335643
 42
-0.133227
  0
VERTEX
  8
0
 10
6.021621
 20
7.358272
 42
0.099187
  0
VERTEX
  8
0
 10
6.044521
 20
7.374837
 42
0.000639
  0
VERTEX
  8
0
 10
6.048707
 20
7.36754
 42
-0.056561
  0
VERTEX
  8
0
 10
6.08357
 20
7.294664
 42
-0.155564
  0
VERTEX
  8
0
 10
6.083714
 20
7.208837
 42
0.088572
  0
VERTEX
  8
0
 10
6.215132
 20
7.137364
 42
0.117256
  0
VERTEX
  8
0
 10
6.239953
 20
7.10175
 42
-0.196887
  0
VERTEX
  8
0
 10
6.265854
 20
7.054364
 42
-0.101031
  0
VERTEX
  8
0
 10
6.265854
 20
6.982892
 42
-0.214528
  0
VERTEX
  8
0
 10
6.144709
 20
6.896491
 42
-0.05497
  0
VERTEX
  8
0
 10
5.980931
 20
6.8799
 42
0.011331
  0
VERTEX
  8
0
 10
5.910797
 20
6.876836
 42
0.052018
  0
VERTEX
  8
0
 10
5.957013
 20
6.903466
 42
-0.077809
  0
VERTEX
  8
0
 10
6.015217
 20
6.934499
 42
-0.259793
  0
VERTEX
  8
0
 10
6.076797
 20
6.920642
 42
-0.064397
  0
VERTEX
  8
0
 10
6.097593
 20
6.92116
 42
0.102209
  0
VERTEX
  8
0
 10
6.122252
 20
6.922848
 42
0.360928
  0
VERTEX
  8
0
 10
6.132132
 20
6.943697
 42
0.097007
  0
VERTEX
  8
0
 10
6.09788
 20
6.952875
 42
-0.193852
  0
VERTEX
  8
0
 10
6.028381
 20
6.982892
 42
-0.07509
  0
VERTEX
  8
0
 10
6.056047
 20
7.038225
 42
0.062267
  0
VERTEX
  8
0
 10
6.006516
 20
7.038269
 42
-0.088188
  0
VERTEX
  8
0
 10
5.948932
 20
7.040148
 42
-0.277017
  0
VERTEX
  8
0
 10
5.910797
 20
7.082031
 42
-0.028228
  0
VERTEX
  8
0
 10
5.911361
 20
7.089158
 42
0.28826
  0
VERTEX
  8
0
 10
5.906186
 20
7.109697
 42
0.046772
  0
VERTEX
  8
0
 10
5.780794
 20
7.071435
 42
0.010612
  0
VERTEX
  8
0
 10
5.651182
 20
7.017475
 42
-0.024997
  0
VERTEX
  8
0
 10
5.583079
 20
6.989692
 42
-0.27569
  0
VERTEX
  8
0
 10
5.491186
 20
7.015169
 42
-0.06385
  0
VERTEX
  8
0
 10
5.430376
 20
7.056093
 42
-0.136753
  0
VERTEX
  8
0
 10
5.392046
 20
7.114308
 42
-0.221525
  0
VERTEX
  8
0
 10
5.396378
 20
7.137019
 42
0.071328
  0
VERTEX
  8
0
 10
5.401268
 20
7.148892
 42
0.061854
  0
VERTEX
  8
0
 10
5.334447
 20
7.158895
 42
-0.064488
  0
VERTEX
  8
0
 10
5.265965
 20
7.169394
 42
-0.203201
  0
VERTEX
  8
0
 10
5.214517
 20
7.213447
 42
-0.270757
  0
VERTEX
  8
0
 10
5.190984
 20
7.255752
 42
-0.082683
  0
VERTEX
  8
0
 10
5.202627
 20
7.30322
 42
0.161075
  0
VERTEX
  8
0
 10
5.210764
 20
7.352016
 42
0.214659
  0
VERTEX
  8
0
 10
5.193834
 20
7.367811
 42
0.088393
  0
VERTEX
  8
0
 10
5.152268
 20
7.374837
 42
0.08675
  0
VERTEX
  8
0
 10
5.141736
 20
7.407527
 42
-0.080473
  0
VERTEX
  8
0
 10
5.131553
 20
7.43819
 42
-0.228023
  0
VERTEX
  8
0
 10
5.143046
 20
7.469365
 42
0.298407
  0
VERTEX
  8
0
 10
5.16277
 20
7.50364
 42
0.12262
  0
VERTEX
  8
0
 10
5.144538
 20
7.53439
 42
-0.086628
  0
VERTEX
  8
0
 10
5.125287
 20
7.564335
 42
-0.252743
  0
VERTEX
  8
0
 10
5.131518
 20
7.600782
 42
-0.183573
  0
VERTEX
  8
0
 10
5.084323
 20
7.605887
 42
-0.073915
  0
VERTEX
  8
0
 10
5.050671
 20
7.632744
 42
0.105461
  0
VERTEX
  8
0
 10
5.009324
 20
7.663032
 42
-0.187297
  0
VERTEX
  8
0
 10
5.010731
 20
7.697933
 42
0.100353
  0
VERTEX
  8
0
 10
5.014456
 20
7.72629
 42
0.408352
  0
VERTEX
  8
0
 10
4.993185
 20
7.739115
 42
-0.368023
  0
VERTEX
  8
0
 10
4.982496
 20
7.768029
 42
-0.119691
  0
VERTEX
  8
0
 10
5.006014
 20
7.787737
 42
0.177378
  0
VERTEX
  8
0
 10
5.032379
 20
7.812893
 42
-0.008063
  0
VERTEX
  8
0
 10
5.019849
 20
7.839289
 42
0.098646
  0
VERTEX
  8
0
 10
4.965515
 20
7.923561
 42
-0.312606
  0
VERTEX
  8
0
 10
4.9986
 20
7.958762
 42
-0.051293
  0
VERTEX
  8
0
 10
5.062601
 20
7.972184
 42
0.022555
  0
VERTEX
  8
0
 10
5.09843
 20
7.97827
 42
0.15788
  0
VERTEX
  8
0
 10
5.119375
 20
7.988316
 42
0.370763
  0
VERTEX
  8
0
 10
5.11533
 20
8.00696
 42
0.068651
  0
SEQEND
  8
0
  0
POLYLINE
  8
0
 66
1
 70
1
  0
VERTEX
  8
0
 10
6.835328
 20
7.054364
 42
-0.208868
  0
VERTEX
  8
0
 10
6.946006
 20
7.072345
 42
-0.059597
  0
VERTEX
  8
0
 10
7.055363
 20
7.029561
 42
0.00019
  0
VERTEX
  8
0
 10
7.061272
 20
7.026699
 42
0.050848
  0
VERTEX
  8
0
 10
7.048739
 20
7.005234
 42
-0.116263
  0
VERTEX
  8
0
 10
7.030157
 20
6.978261
 42
-0.335108
  0
VERTEX
  8
0
 10
6.996717
 20
6.982892
 42
0.038826
  0
VERTEX
  8
0
 10
6.885788
 20
7.033708
 42
-0.008015
  0
SEQEND
  8
0
  0
POLYLINE
  8
0
 66
1
 70
1
  0
VERTEX
  8
0
 10
6.957522
 20
6.971364
 42
-0.174393
  0
VERTEX
  8
0
 10
6.882015
 20
6.967689
 42
-0.072152
  0
VERTEX
  8
0
 10
6.80305
 20
6.999031
 42
-0.229545
  0
VERTEX
  8
0
 10
6.836912
 20
7.023401
 42
-0.128761
  0
VERTEX
  8
0
 10
6.883742
 20
7.012773
 42
-0.028316
  0
VERTEX
  8
0
 10
6.934242
 20
6.985024
 42
0.006813
  0
SEQEND
  8
0
  0
POLYLINE
  8
0
 66
1
 70
1
  0
VERTEX
  8
0
 10
6.941383
 20
7.109697
 42
-0.068549
  0
VERTEX
  8
0
 10
6.93952
 20
7.129172
 42
-0.35933
  0
VERTEX
  8
0
 10
6.947917
 20
7.138889
 42
-0.091122
  0
VERTEX
  8
0
 10
7.10779
 20
7.12487
 42
-0.01933
  0
VERTEX
  8
0
 10
7.278582
 20
7.076997
 42
0.000115
  0
VERTEX
  8
0
 10
7.288393
 20
7.073957
 42
-0.25914
  0
VERTEX
  8
0
 10
7.111994
 20
7.031308
 42
-0.013754
  0
VERTEX
  8
0
 10
7.060323
 20
7.058467
 42
0.071947
  0
SEQEND
  8
0
  0
POLYLINE
  8
0
 66
1
 70
1
  0
VERTEX
  8
0
 10
6.563271
 20
6.865308
 42
0.001218
  0
VERTEX
  8
0
 10
6.552381
 20
6.850689
 42
-0.062538
  0
VERTEX
  8
0
 10
6.466467
 20
6.752916
 42
-0.190516
  0
VERTEX
  8
0
 10
6.341938
 20
6.710835
 42
-0.138675
  0
VERTEX
  8
0
 10
6.190347
 20
6.75003
 42
-0.090375
  0
VERTEX
  8
0
 10
6.076797
 20
6.844558
 42
0.076459
  0
VERTEX
  8
0
 10
6.145501
 20
6.860484
 42
-0.092477
  0
VERTEX
  8
0
 10
6.225407
 20
6.877168
 42
0.102159
  0
VERTEX
  8
0
 10
6.322888
 20
6.86637
 42
0.08326
  0
VERTEX
  8
0
 10
6.375829
 20
6.878521
 42
0.193487
  0
VERTEX
  8
0
 10
6.408799
 20
6.909114
 42
-0.125732
  0
SEQEND
  8
0
  0
POLYLINE
  8
0
 66
1
 70
1
  0
VERTEX
  8
0
 10
6.366586
 20
7.589971
 42
-0.300498
  0
VERTEX
  8
0
 10
6.362384
 20
7.6281
 42
-0.10773
  0
VERTEX
  8
0
 10
6.389656
 20
7.652175
 42
0.085813
  0
VERTEX
  8
0
 10
6.41454
 20
7.672971
 42
-0.082288
  0
VERTEX
  8
0
 10
6.419152
 20
7.669282
 42
0.082288
  0
VERTEX
  8
0
 10
6.423764
 20
7.665593
 42
0.087995
  0
VERTEX
  8
0
 10
6.413918
 20
7.631032
 42
-0.102746
  0
VERTEX
  8
0
 10
6.402102
 20
7.592338
 42
-0.422758
  0
SEQEND
  8
0
  0
POLYLINE
  8
0
 66
1
 70
1
  0
VERTEX
  8
0
 10
6.740799
 20
7.663032
 42
0.054247
  0
VERTEX
  8
0
 10
6.73747
 20
7.704086
 42
-0.053268
  0
VERTEX
  8
0
 10
6.733167
 20
7.763153
 42
-0.227899
  0
VERTEX
  8
0
 10
6.745571
 20
7.789017
 42
-0.294999
  0
VERTEX
  8
0
 10
6.78125
 20
7.78125
 42
0.044779
  0
VERTEX
  8
0
 10
6.874522
 20
7.750643
 42
-0.176854
  0
VERTEX
  8
0
 10
6.720049
 20
7.513171
 42
-0.252909
  0
VERTEX
  8
0
 10
6.575173
 20
7.519256
 42
-0.118959
  0
VERTEX
  8
0
 10
6.487186
 20
7.607699
 42
-0.21869
  0
VERTEX
  8
0
 10
6.530993
 20
7.718367
 42
-0.088486
  0
VERTEX
  8
0
 10
6.572506
 20
7.648353
 42
0.012379
  0
VERTEX
  8
0
 10
6.590432
 20
7.610968
 42
0.170471
  0
VERTEX
  8
0
 10
6.640691
 20
7.557533
 42
0.228557
  0
VERTEX
  8
0
 10
6.692184
 20
7.558896
 42
0.306846
  0
SEQEND
  8
0
  0
POLYLINE
  8
0
 66
1
 70
1
  0
VERTEX
  8
0
 10
6.643339
 20
7.771162
 42
-0.268394
  0
VERTEX
  8
0
 10
6.662772
 20
7.770674
 42
-0.10528
  0
VERTEX
  8
0
 10
6.674075
 20
7.755651
 42
0.000278
  0
VERTEX
  8
0
 10
6.674696
 20
7.754562
 42
0.01575
  0
VERTEX
  8
0
 10
6.671939
 20
7.744861
 42
-0.080752
  0
VERTEX
  8
0
 10
6.663473
 20
7.722372
 42
-0.31949
  0
VERTEX
  8
0
 10
6.643339
 20
7.713986
 42
-0.360892
  0
VERTEX
  8
0
 10
6.625412
 20
7.737033
 42
-0.32309
  0
SEQEND
  8
0
  0
POLYLINE
  8
0
 66
1
 70
1
  0
VERTEX
  8
0
 10
6.072342
 20
7.587557
 42
-0.082195
  0
VERTEX
  8
0
 10
6.076029
 20
7.587679
 42
0.082334
  0
VERTEX
  8
0
 10
6.079719
 20
7.587801
 42
0.087985
  0
VERTEX
  8
0
 10
6.08909
 20
7.56739
 42
-0.102743
  0
VERTEX
  8
0
 10
6.099205
 20
7.544215
 42
-0.422749
  0
VERTEX
  8
0
 10
6.083304
 20
7.528656
 42
-0.300483
  0
VERTEX
  8
0
 10
6.065812
 20
7.545054
 42
-0.107729
  0
VERTEX
  8
0
 10
6.068978
 20
7.567569
 42
0.085806
  0
SEQEND
  8
0
  0
POLYLINE
  8
0
 66
1
 70
1
  0
VERTEX
  8
0
 10
5.823186
 20
7.469365
 42
0.281684
  0
VERTEX
  8
0
 10
5.916525
 20
7.511537
 42
0.227396
  0
VERTEX
  8
0
 10
5.932971
 20
7.623537
 42
-0.195159
  0
VERTEX
  8
0
 10
5.932979
 20
7.64773
 42
-0.330224
  0
VERTEX
  8
0
 10
5.947301
 20
7.652741
 42
-0.186735
  0
VERTEX
  8
0
 10
5.989187
 20
7.619226
 42
-0.187622
  0
VERTEX
  8
0
 10
5.989187
 20
7.490115
 42
-0.208857
  0
VERTEX
  8
0
 10
5.929573
 20
7.446051
 42
-0.055269
  0
VERTEX
  8
0
 10
5.850694
 20
7.434028
 42
-0.099216
  0
VERTEX
  8
0
 10
5.758959
 20
7.452551
 42
-0.131084
  0
VERTEX
  8
0
 10
5.705972
 20
7.495065
 42
-0.113247
  0
VERTEX
  8
0
 10
5.665131
 20
7.616968
 42
0.002252
  0
VERTEX
  8
0
 10
5.661796
 20
7.635365
 42
-0.036264
  0
VERTEX
  8
0
 10
5.699262
 20
7.661015
 42
-0.12268
  0
VERTEX
  8
0
 10
5.740186
 20
7.67456
 42
-0.007704
  0
VERTEX
  8
0
 10
5.743812
 20
7.638104
 42
0.058366
  0
VERTEX
  8
0
 10
5.761187
 20
7.533637
 42
0.265827
  0
SEQEND
  8
0
  0
POLYLINE
  8
0
 66
1
 70
1
  0
VERTEX
  8
0
 10
5.849124
 20
7.663321
 42
-0.2752
  0
VERTEX
  8
0
 10
5.858429
 20
7.653883
 42
-0.066579
  0
VERTEX
  8
0
 10
5.859717
 20
7.636894
 42
0.000667
  0
VERTEX
  8
0
 10
5.859712
 20
7.6345
 42
-0.407612
  0
VERTEX
  8
0
 10
5.838317
 20
7.608008
 42
-0.311885
  0
VERTEX
  8
0
 10
5.818182
 20
7.631331
 42
0.001356
  0
VERTEX
  8
0
 10
5.816919
 20
7.6345
 42
-0.368595
  0
VERTEX
  8
0
 10
5.820241
 20
7.661879
 42
-0.224039
  0
SEQEND
  8
0
  0
POLYLINE
  8
0
 66
1
 70
1
  0
VERTEX
  8
0
 10
6.000714
 20
6.999031
 42
-0.238657
  0
VERTEX
  8
0
 10
6.000714
 20
6.948308
 42
0.09509
  0
VERTEX
  8
0
 10
5.850851
 20
6.865308
 42
-0.09612
  0
VERTEX
  8
0
 10
5.761202
 20
6.860982
 42
-0.087611
  0
VERTEX
  8
0
 10
5.705603
 20
6.881447
 42
0.051389
  0
VERTEX
  8
0
 10
5.790398
 20
6.933944
 42
-0.059677
  0
VERTEX
  8
0
 10
5.884986
 20
6.990996
 42
-0.164425
  0
SEQEND
  8
0
  0
POLYLINE
  8
0
 66
1
 70
1
  0
VERTEX
  8
0
 10
5.677936
 20
6.899892
 42
-0.222751
  0
VERTEX
  8
0
 10
5.643353
 20
6.926982
 42
-0.088202
  0
VERTEX
  8
0
 10
5.629519
 20
6.971364
 42
0.000187
  0
VERTEX
  8
0
 10
5.636563
 20
6.975551
 42
-0.0412
  0
VERTEX
  8
0
 10
5.752576
 20
7.036072
 42
-0.131588
  0
VERTEX
  8
0
 10
5.883131
 20
7.054364
 42
-0.031112
  0
VERTEX
  8
0
 10
5.899269
 20
7.031308
 42
-0.023544
  0
VERTEX
  8
0
 10
5.78577
 20
6.963442
 42
0.018147
  0
SEQEND
  8
0
  0
POLYLINE
  8
0
 66
1
 70
1
  0
VERTEX
  8
0
 10
6.222047
 20
3.489968
 42
0.003762
  0
VERTEX
  8
0
 10
6.256687
 20
3.473833
 42
-0.065302
  0
VERTEX
  8
0
 10
6.398871
 20
3.392997
 42
-0.210266
  0
VERTEX
  8
0
 10
6.475212
 20
3.249658
 42
0.002733
  0
VERTEX
  8
0
 10
6.475337
 20
3.24755
 42
-0.119809
  0
VERTEX
  8
0
 10
6.474545
 20
3.237013
 42
-0.424062
  0
VERTEX
  8
0
 10
6.464439
 20
3.236271
 42
0.028634
  0
VERTEX
  8
0
 10
6.442228
 20
3.245049
 42
-0.040128
  0
VERTEX
  8
0
 10
6.347262
 20
3.286451
 42
-0.136193
  0
VERTEX
  8
0
 10
6.258218
 20
3.366844
 42
-0.033303
  0
VERTEX
  8
0
 10
6.231062
 20
3.423273
 42
-0.170908
  0
SEQEND
  8
0
  0
POLYLINE
  8
0
 66
1
 70
1
  0
VERTEX
  8
0
 10
7.692996
 20
6.793836
 42
-0.010804
  0
VERTEX
  8
0
 10
7.679526
 20
6.780071
 42
0.085062
  0
VERTEX
  8
0
 10
7.647726
 20
6.740721
 42
0.235267
  0
VERTEX
  8
0
 10
7.64919
 20
6.687781
 42
-0.257265
  0
VERTEX
  8
0
 10
7.669076
 20
6.64311
 42
-0.145831
  0
VERTEX
  8
0
 10
7.64919
 20
6.600169
 42
0.322268
  0
VERTEX
  8
0
 10
7.632191
 20
6.579466
 42
0.104144
  0
VERTEX
  8
0
 10
7.640555
 20
6.553315
 42
-0.161653
  0
VERTEX
  8
0
 10
7.64919
 20
6.517169
 42
-0.247003
  0
VERTEX
  8
0
 10
7.664521
 20
6.467808
 42
-0.086301
  0
VERTEX
  8
0
 10
7.643434
 20
6.422255
 42
0.095108
  0
VERTEX
  8
0
 10
7.6221
 20
6.374863
 42
0.256297
  0
VERTEX
  8
0
 10
7.642272
 20
6.323501
 42
-0.09472
  0
VERTEX
  8
0
 10
7.62885
 20
6.251217
 42
-0.037821
  0
VERTEX
  8
0
 10
7.597235
 20
6.188739
 42
0.005375
  0
VERTEX
  8
0
 10
7.582329
 20
6.162113
 42
-0.054712
  0
VERTEX
  8
0
 10
7.594722
 20
6.075078
 42
-0.177445
  0
VERTEX
  8
0
 10
7.570801
 20
5.991501
 42
-0.374259
  0
VERTEX
  8
0
 10
7.564878
 20
5.992849
 42
0.413977
  0
VERTEX
  8
0
 10
7.538524
 20
5.991501
 42
0.001381
  0
VERTEX
  8
0
 10
7.503961
 20
5.78643
 42
-0.0
  0
VERTEX
  8
0
 10
7.50394
 20
5.786306
 42
0.553254
  0
VERTEX
  8
0
 10
7.448607
 20
5.758639
 42
0.095716
  0
VERTEX
  8
0
 10
7.443759
 20
5.704345
 42
-0.155879
  0
VERTEX
  8
0
 10
7.432468
 20
5.636444
 42
-0.186225
  0
VERTEX
  8
0
 10
7.415111
 20
5.650982
 42
0.117814
  0
VERTEX
  8
0
 10
7.399762
 20
5.665756
 42
0.309661
  0
VERTEX
  8
0
 10
7.377133
 20
5.6595
 42
0.134228
  0
VERTEX
  8
0
 10
7.354742
 20
5.588355
 42
0.046858
  0
VERTEX
  8
0
 10
7.360044
 20
5.514754
 42
-0.04803
  0
VERTEX
  8
0
 10
7.365606
 20
5.433556
 42
-0.352925
  0
VERTEX
  8
0
 10
7.367834
 20
5.418531
 42
-0.075755
  0
VERTEX
  8
0
 10
7.354695
 20
5.40367
 42
0.227662
  0
VERTEX
  8
0
 10
7.333329
 20
5.366694
 42
0.061739
  0
VERTEX
  8
0
 10
7.365606
 20
5.189165
 42
-0.084547
  0
VERTEX
  8
0
 10
7.360181
 20
5.173197
 42
-0.391375
  0
VERTEX
  8
0
 10
7.354028
 20
5.170305
 42
-0.121134
  0
VERTEX
  8
0
 10
7.339128
 20
5.188488
 42
0.077846
  0
VERTEX
  8
0
 10
7.319309
 20
5.213828
 42
0.433369
  0
VERTEX
  8
0
 10
7.294132
 20
5.212221
 42
-0.161923
  0
VERTEX
  8
0
 10
7.308271
 20
5.162448
 42
-0.057215
  0
VERTEX
  8
0
 10
7.298931
 20
5.11261
 42
0.042357
  0
VERTEX
  8
0
 10
7.289524
 20
5.066971
 42
-0.119536
  0
VERTEX
  8
0
 10
7.230603
 20
5.032131
 42
0.030559
  0
VERTEX
  8
0
 10
7.199606
 20
5.018554
 42
-0.083814
  0
VERTEX
  8
0
 10
7.182523
 20
5.047168
 42
0.0752
  0
VERTEX
  8
0
 10
7.166629
 20
5.074448
 42
0.279964
  0
VERTEX
  8
0
 10
7.139661
 20
5.08311
 42
0.21278
  0
VERTEX
  8
0
 10
7.129528
 20
5.055689
 42
0.071027
  0
VERTEX
  8
0
 10
7.136764
 20
5.027294
 42
-0.084032
  0
VERTEX
  8
0
 10
7.144272
 20
4.995499
 42
-0.13018
  0
VERTEX
  8
0
 10
7.068189
 20
4.841026
 42
0.131874
  0
VERTEX
  8
0
 10
7.037064
 20
4.894342
 42
0.062661
  0
VERTEX
  8
0
 10
6.985189
 20
4.935554
 42
0.423302
  0
VERTEX
  8
0
 10
6.945994
 20
4.900971
 42
-0.449038
  0
VERTEX
  8
0
 10
6.945562
 20
4.886017
 42
-0.124843
  0
VERTEX
  8
0
 10
6.9307
 20
4.887682
 42
0.10028
  0
VERTEX
  8
0
 10
6.918328
 20
4.889443
 42
0.067327
  0
VERTEX
  8
0
 10
6.880574
 20
4.932672
 42
0.192908
  0
VERTEX
  8
0
 10
6.830715
 20
4.951693
 42
0.66063
  0
VERTEX
  8
0
 10
6.826581
 20
4.92322
 42
-0.301125
  0
VERTEX
  8
0
 10
6.835328
 20
4.89636
 42
-0.181975
  0
VERTEX
  8
0
 10
6.752328
 20
4.695775
 42
0.159213
  0
VERTEX
  8
0
 10
6.729315
 20
4.769711
 42
0.049802
  0
VERTEX
  8
0
 10
6.676628
 20
4.829238
 42
-0.092171
  0
VERTEX
  8
0
 10
6.613993
 20
4.907888
 42
0.169869
  0
VERTEX
  8
0
 10
6.594396
 20
4.915669
 42
0.415913
  0
VERTEX
  8
0
 10
6.581715
 20
4.900971
 42
-0.068857
  0
VERTEX
  8
0
 10
6.605348
 20
4.738429
 42
-0.234138
  0
VERTEX
  8
0
 10
6.535604
 20
4.596636
 42
-0.05551
  0
VERTEX
  8
0
 10
6.492859
 20
4.672676
 42
0.041888
  0
VERTEX
  8
0
 10
6.458033
 20
4.737424
 42
0.1286
  0
VERTEX
  8
0
 10
6.404187
 20
4.785692
 42
0.306568
  0
VERTEX
  8
0
 10
6.387188
 20
4.763927
 42
0.106933
  0
VERTEX
  8
0
 10
6.395599
 20
4.738093
 42
-0.16567
  0
VERTEX
  8
0
 10
6.404187
 20
4.702692
 42
-0.147028
  0
VERTEX
  8
0
 10
6.415291
 20
4.67175
 42
-0.035963
  0
VERTEX
  8
0
 10
6.415369
 20
4.6333
 42
0.040822
  0
VERTEX
  8
0
 10
6.415715
 20
4.592025
 42
0.395787
  0
VERTEX
  8
0
 10
6.403072
 20
4.568407
 42
-0.346196
  0
VERTEX
  8
0
 10
6.397271
 20
4.552832
 42
0.16467
  0
VERTEX
  8
0
 10
6.264125
 20
4.735547
 42
0.124527
  0
VERTEX
  8
0
 10
6.044521
 20
4.817971
 42
-0.214627
  0
VERTEX
  8
0
 10
6.016079
 20
4.845253
 42
-0.047009
  0
VERTEX
  8
0
 10
6.000904
 20
4.889082
 42
0.115997
  0
VERTEX
  8
0
 10
5.984086
 20
4.929573
 42
0.325696
  0
VERTEX
  8
0
 10
5.970486
 20
4.93108
 42
0.1079
  0
VERTEX
  8
0
 10
5.94999
 20
4.912497
 42
0.086457
  0
VERTEX
  8
0
 10
5.98411
 20
4.739479
 42
-0.086017
  0
VERTEX
  8
0
 10
6.016854
 20
4.575886
 42
-0.094944
  0
VERTEX
  8
0
 10
5.953971
 20
4.621547
 42
-0.030661
  0
VERTEX
  8
0
 10
5.903178
 20
4.683116
 42
0.024052
  0
VERTEX
  8
0
 10
5.855464
 20
4.741887
 42
0.32463
  0
VERTEX
  8
0
 10
5.841033
 20
4.732257
 42
0.070854
  0
VERTEX
  8
0
 10
5.836539
 20
4.711737
 42
-0.11352
  0
VERTEX
  8
0
 10
5.831136
 20
4.691111
 42
-0.410124
  0
VERTEX
  8
0
 10
5.811658
 20
4.691165
 42
-0.063158
  0
VERTEX
  8
0
 10
5.795433
 20
4.72042
 42
0.067721
  0
VERTEX
  8
0
 10
5.777437
 20
4.752294
 42
0.204004
  0
VERTEX
  8
0
 10
5.744797
 20
4.769554
 42
0.00677
  0
VERTEX
  8
0
 10
5.741006
 20
4.747865
 42
-0.036296
  0
VERTEX
  8
0
 10
5.722814
 20
4.663242
 42
-0.297143
  0
VERTEX
  8
0
 10
5.710426
 20
4.646772
 42
-0.216332
  0
VERTEX
  8
0
 10
5.696381
 20
4.675026
 42
0.275373
  0
VERTEX
  8
0
 10
5.645658
 20
4.769554
 42
0.297482
  0
VERTEX
  8
0
 10
5.62497
 20
4.758695
 42
0.086267
  0
VERTEX
  8
0
 10
5.618591
 20
4.734057
 42
-0.212915
  0
VERTEX
  8
0
 10
5.601853
 20
4.695775
 42
-0.002341
  0
VERTEX
  8
0
 10
5.589731
 20
4.677824
 42
0.051185
  0
VERTEX
  8
0
 10
5.546519
 20
4.603553
 42
0.197293
  0
VERTEX
  8
0
 10
5.468129
 20
4.785692
 42
-0.261531
  0
VERTEX
  8
0
 10
5.242185
 20
4.446775
 42
0.110848
  0
VERTEX
  8
0
 10
5.241891
 20
4.529554
 42
0.038189
  0
VERTEX
  8
0
 10
5.217257
 20
4.606897
 42
-0.04709
  0
VERTEX
  8
0
 10
5.191463
 20
4.691165
 42
-0.067968
  0
VERTEX
  8
0
 10
5.185375
 20
4.697774
 42
0.101981
  0
VERTEX
  8
0
 10
5.175509
 20
4.707496
 42
0.420926
  0
VERTEX
  8
0
 10
5.163796
 20
4.702692
 42
0.378347
  0
VERTEX
  8
0
 10
5.155933
 20
4.668387
 42
-0.293086
  0
VERTEX
  8
0
 10
5.152268
 20
4.635831
 42
0.027564
  0
VERTEX
  8
0
 10
5.11766
 20
4.583907
 42
-0.007041
  0
VERTEX
  8
0
 10
5.099057
 20
4.554361
 42
0.084438
  0
VERTEX
  8
0
 10
5.085658
 20
4.527501
 42
0.504204
  0
VERTEX
  8
0
 10
5.08931
 20
4.518517
 42
0.201198
  0
VERTEX
  8
0
 10
5.119414
 20
4.539574
 42
0.042508
  0
VERTEX
  8
0
 10
5.175324
 20
4.624303
 42
-0.243054
  0
VERTEX
  8
0
 10
5.20299
 20
4.386831
 42
0.145587
  0
VERTEX
  8
0
 10
5.190199
 20
4.356443
 42
-0.027638
  0
VERTEX
  8
0
 10
5.186851
 20
4.343025
 42
0.384329
  0
VERTEX
  8
0
 10
5.21824
 20
4.345415
 42
0.099015
  0
VERTEX
  8
0
 10
5.231956
 20
4.379544
 42
-0.169211
  0
VERTEX
  8
0
 10
5.258324
 20
4.430636
 42
0.14739
  0
VERTEX
  8
0
 10
5.382888
 20
4.526924
 42
0.048951
  0
VERTEX
  8
0
 10
5.459425
 20
4.663422
 42
-0.006413
  0
VERTEX
  8
0
 10
5.484268
 20
4.714219
 42
-0.128538
  0
VERTEX
  8
0
 10
5.514689
 20
4.625867
 42
-0.03156
  0
VERTEX
  8
0
 10
5.518865
 20
4.524416
 42
0.000475
  0
VERTEX
  8
0
 10
5.518851
 20
4.513636
 42
0.591502
  0
VERTEX
  8
0
 10
5.530773
 20
4.511382
 42
-0.19229
  0
VERTEX
  8
0
 10
5.539601
 20
4.513636
 42
-0.073835
  0
VERTEX
  8
0
 10
5.645658
 20
4.718832
 42
-0.202455
  0
VERTEX
  8
0
 10
5.666235
 20
4.694558
 42
-0.057123
  0
VERTEX
  8
0
 10
5.672545
 20
4.660304
 42
0.113203
  0
VERTEX
  8
0
 10
5.684853
 20
4.612775
 42
-0.073824
  0
VERTEX
  8
0
 10
5.678861
 20
4.585143
 42
0.086694
  0
VERTEX
  8
0
 10
5.672852
 20
4.555094
 42
0.269917
  0
VERTEX
  8
0
 10
5.689464
 20
4.529775
 42
0.425605
  0
VERTEX
  8
0
 10
5.709598
 20
4.535023
 42
0.104933
  0
VERTEX
  8
0
 10
5.712137
 20
4.557195
 42
-0.040697
  0
VERTEX
  8
0
 10
5.712519
 20
4.568969
 42
-0.003932
  0
VERTEX
  8
0
 10
5.730671
 20
4.624072
 42
0.010346
  0
VERTEX
  8
0
 10
5.760935
 20
4.718832
 42
-0.189512
  0
VERTEX
  8
0
 10
5.790241
 20
4.679946
 42
0.230557
  0
VERTEX
  8
0
 10
5.827797
 20
4.635831
 42
0.330957
  0
VERTEX
  8
0
 10
5.848721
 20
4.647588
 42
0.056996
  0
VERTEX
  8
0
 10
5.860155
 20
4.673491
 42
-0.010205
  0
VERTEX
  8
0
 10
5.862381
 20
4.679637
 42
-0.063577
  0
VERTEX
  8
0
 10
5.915288
 20
4.622743
 42
0.080686
  0
VERTEX
  8
0
 10
5.975298
 20
4.560858
 42
0.277346
  0
VERTEX
  8
0
 10
6.056047
 20
4.557442
 42
0.104042
  0
VERTEX
  8
0
 10
6.021824
 20
4.703849
 42
-0.103455
  0
VERTEX
  8
0
 10
5.989187
 20
4.841026
 42
0.204552
  0
VERTEX
  8
0
 10
6.046479
 20
4.779256
 42
0.061384
  0
VERTEX
  8
0
 10
6.132379
 20
4.754734
 42
-0.039375
  0
VERTEX
  8
0
 10
6.205816
 20
4.7359
 42
-0.131531
  0
VERTEX
  8
0
 10
6.265854
 20
4.695775
 42
0.01261
  0
VERTEX
  8
0
 10
6.280946
 20
4.675667
 42
-0.060379
  0
VERTEX
  8
0
 10
6.314271
 20
4.624303
 42
0.710362
  0
VERTEX
  8
0
 10
6.299175
 20
4.612476
 42
-0.206008
  0
VERTEX
  8
0
 10
6.293521
 20
4.596636
 42
-0.127605
  0
VERTEX
  8
0
 10
6.33358
 20
4.485105
 42
-0.038385
  0
VERTEX
  8
0
 10
6.337326
 20
4.354553
 42
-0.223923
  0
VERTEX
  8
0
 10
6.303586
 20
4.394282
 42
0.067421
  0
VERTEX
  8
0
 10
6.28759
 20
4.422573
 42
0.206736
  0
VERTEX
  8
0
 10
6.258938
 20
4.437553
 42
0.101935
  0
VERTEX
  8
0
 10
6.261318
 20
4.378556
 42
-0.055078
  0
VERTEX
  8
0
 10
6.265799
 20
4.333311
 42
-0.176693
  0
VERTEX
  8
0
 10
6.249715
 20
4.292303
 42
0.107993
  0
VERTEX
  8
0
 10
6.203604
 20
4.326886
 42
0.169363
  0
VERTEX
  8
0
 10
6.207618
 20
4.268614
 42
-0.075638
  0
VERTEX
  8
0
 10
6.215217
 20
4.225846
 42
-0.285505
  0
VERTEX
  8
0
 10
6.194381
 20
4.193164
 42
-0.031066
  0
VERTEX
  8
0
 10
6.169719
 20
4.228425
 42
0.029646
  0
VERTEX
  8
0
 10
6.142883
 20
4.266815
 42
0.122975
  0
VERTEX
  8
0
 10
6.111382
 20
4.292303
 42
0.275013
  0
VERTEX
  8
0
 10
6.103985
 20
4.262906
 42
0.103534
  0
VERTEX
  8
0
 10
6.121347
 20
4.239761
 42
-0.218536
  0
VERTEX
  8
0
 10
6.14366
 20
4.197775
 42
0.0069
  0
VERTEX
  8
0
 10
6.145877
 20
4.185902
 42
-0.061334
  0
VERTEX
  8
0
 10
6.150731
 20
4.142306
 42
-0.241984
  0
VERTEX
  8
0
 10
6.132132
 20
4.105553
 42
-0.246425
  0
VERTEX
  8
0
 10
6.106298
 20
4.12994
 42
0.12527
  0
VERTEX
  8
0
 10
6.09091
 20
4.149386
 42
0.330503
  0
VERTEX
  8
0
 10
6.065271
 20
4.142442
 42
-0.161189
  0
VERTEX
  8
0
 10
6.104207
 20
4.034908
 42
-0.049171
  0
VERTEX
  8
0
 10
6.095128
 20
3.915814
 42
0.034358
  0
VERTEX
  8
0
 10
6.085563
 20
3.815652
 42
0.116101
  0
VERTEX
  8
0
 10
6.104464
 20
3.722829
 42
0.230961
  0
VERTEX
  8
0
 10
6.109038
 20
3.681154
 42
-0.088866
  0
VERTEX
  8
0
 10
6.11679
 20
3.654966
 42
-0.232503
  0
VERTEX
  8
0
 10
6.104464
 20
3.628301
 42
0.119897
  0
VERTEX
  8
0
 10
6.026573
 20
3.585066
 42
0.039239
  0
VERTEX
  8
0
 10
5.966818
 20
3.520175
 42
-0.088521
  0
VERTEX
  8
0
 10
5.88818
 20
3.444046
 42
-0.259299
  0
VERTEX
  8
0
 10
5.779957
 20
3.445129
 42
0.287925
  0
VERTEX
  8
0
 10
5.763213
 20
3.429115
 42
0.51738
  0
VERTEX
  8
0
 10
5.779381
 20
3.402356
 42
0.192475
  0
VERTEX
  8
0
 10
5.899416
 20
3.419778
 42
0.07439
  0
VERTEX
  8
0
 10
5.983749
 20
3.495135
 42
-0.105969
  0
VERTEX
  8
0
 10
6.092936
 20
3.584496
 42
0.031976
  0
VERTEX
  8
0
 10
6.15275
 20
3.475937
 42
-0.027105
  0
VERTEX
  8
0
 10
6.205831
 20
3.381231
 42
-0.07739
  0
VERTEX
  8
0
 10
6.238187
 20
3.27555
 42
-0.096889
  0
VERTEX
  8
0
 10
6.133397
 20
3.241116
 42
0.095123
  0
VERTEX
  8
0
 10
6.031422
 20
3.207943
 42
0.169285
  0
VERTEX
  8
0
 10
6.004234
 20
3.172434
 42
0.140991
  0
VERTEX
  8
0
 10
6.005325
 20
3.114161
 42
0.369528
  0
VERTEX
  8
0
 10
6.035459
 20
3.110758
 42
0.068259
  0
VERTEX
  8
0
 10
6.065437
 20
3.135586
 42
-0.012464
  0
VERTEX
  8
0
 10
6.076797
 20
3.146439
 42
-0.235865
  0
VERTEX
  8
0
 10
6.116715
 20
3.18976
 42
-0.064444
  0
VERTEX
  8
0
 10
6.179257
 20
3.204056
 42
0.039994
  0
VERTEX
  8
0
 10
6.22666
 20
3.2133
 42
0.270739
  0
VERTEX
  8
0
 10
6.307419
 20
3.223147
 42
-0.379962
  0
VERTEX
  8
0
 10
6.39266
 20
3.220217
 42
0.004683
  0
VERTEX
  8
0
 10
6.430992
 20
3.20297
 42
-0.056602
  0
VERTEX
  8
0
 10
6.556553
 20
3.135894
 42
-0.173781
  0
VERTEX
  8
0
 10
6.637049
 20
3.019633
 42
-0.112843
  0
VERTEX
  8
0
 10
6.665921
 20
2.899158
 42
-0.275049
  0
VERTEX
  8
0
 10
6.642905
 20
2.856872
 42
-0.139479
  0
VERTEX
  8
0
 10
6.613919
 20
2.852885
 42
-0.073012
  0
VERTEX
  8
0
 10
6.570189
 20
2.865161
 42
-0.16885
  0
VERTEX
  8
0
 10
6.543143
 20
2.827899
 42
-0.056249
  0
VERTEX
  8
0
 10
6.503437
 20
2.807146
 42
0.035109
  0
VERTEX
  8
0
 10
6.47566
 20
2.793687
 42
0.171598
  0
VERTEX
  8
0
 10
6.487187
 20
2.838358
 42
0.206234
  0
VERTEX
  8
0
 10
6.471049
 20
2.8813
 42
-0.02604
  0
VERTEX
  8
0
 10
6.463512
 20
2.888231
 42
0.360369
  0
VERTEX
  8
0
 10
6.436465
 20
2.897439
 42
-0.129605
  0
VERTEX
  8
0
 10
6.430413
 20
2.82856
 42
-0.234107
  0
VERTEX
  8
0
 10
6.381132
 20
2.782161
 42
-0.113346
  0
VERTEX
  8
0
 10
6.283871
 20
2.771764
 42
-0.154186
  0
VERTEX
  8
0
 10
6.194381
 20
2.809828
 42
-0.178325
  0
VERTEX
  8
0
 10
6.092647
 20
2.77899
 42
-0.071516
  0
VERTEX
  8
0
 10
5.982269
 20
2.7983
 42
-0.002189
  0
VERTEX
  8
0
 10
5.977259
 20
2.802806
 42
0.28586
  0
VERTEX
  8
0
 10
5.910797
 20
2.825967
 42
-0.180787
  0
VERTEX
  8
0
 10
5.854949
 20
2.823054
 42
-0.040323
  0
VERTEX
  8
0
 10
5.794466
 20
2.844654
 42
0.001593
  0
VERTEX
  8
0
 10
5.783992
 20
2.849021
 42
-0.182736
  0
VERTEX
  8
0
 10
5.710176
 20
2.873415
 42
-0.066912
  0
VERTEX
  8
0
 10
5.661868
 20
2.928602
 42
0.043401
  0
VERTEX
  8
0
 10
5.625844
 20
2.972492
 42
0.142114
  0
VERTEX
  8
0
 10
5.578797
 20
2.998883
 42
0.200218
  0
VERTEX
  8
0
 10
5.557313
 20
3.051373
 42
0.082878
  0
VERTEX
  8
0
 10
5.514507
 20
3.077687
 42
-0.106248
  0
VERTEX
  8
0
 10
5.46975
 20
3.106928
 42
-0.22414
  0
VERTEX
  8
0
 10
5.456601
 20
3.169494
 42
0.09721
  0
VERTEX
  8
0
 10
5.411887
 20
3.194728
 42
-0.238401
  0
VERTEX
  8
0
 10
5.357462
 20
3.240967
 42
0.198031
  0
VERTEX
  8
0
 10
5.346228
 20
3.284304
 42
0.069303
  0
VERTEX
  8
0
 10
5.314297
 20
3.313892
 42
-0.145246
  0
VERTEX
  8
0
 10
5.274462
 20
3.35855
 42
0.136778
  0
VERTEX
  8
0
 10
5.269852
 20
3.41763
 42
0.251683
  0
VERTEX
  8
0
 10
5.230657
 20
3.450772
 42
-0.052982
  0
VERTEX
  8
0
 10
5.2146
 20
3.499653
 42
0.059675
  0
VERTEX
  8
0
 10
5.197564
 20
3.550148
 42
0.19072
  0
VERTEX
  8
0
 10
5.159185
 20
3.584496
 42
-0.181583
  0
VERTEX
  8
0
 10
5.091747
 20
3.59977
 42
-0.10386
  0
VERTEX
  8
0
 10
5.041601
 20
3.651357
 42
-0.24326
  0
VERTEX
  8
0
 10
5.03119
 20
3.673101
 42
-0.040346
  0
VERTEX
  8
0
 10
5.031972
 20
3.706683
 42
0.112897
  0
VERTEX
  8
0
 10
5.029884
 20
3.748659
 42
0.316951
  0
VERTEX
  8
0
 10
5.018007
 20
3.755437
 42
0.119397
  0
VERTEX
  8
0
 10
4.993185
 20
3.745885
 42
0.016028
  0
VERTEX
  8
0
 10
4.974931
 20
3.784658
 42
-0.043706
  0
VERTEX
  8
0
 10
4.944024
 20
3.857264
 42
-0.152232
  0
VERTEX
  8
0
 10
4.942462
 20
3.932635
 42
0.52055
  0
VERTEX
  8
0
 10
4.918541
 20
3.940993
 42
0.243772
  0
VERTEX
  8
0
 10
4.903267
 20
3.916497
 42
-0.13209
  0
VERTEX
  8
0
 10
4.898572
 20
3.90678
 42
-0.418058
  0
VERTEX
  8
0
 10
4.893569
 20
3.907098
 42
-0.081979
  0
VERTEX
  8
0
 10
4.882877
 20
3.924809
 42
0.086945
  0
VERTEX
  8
0
 10
4.87099
 20
3.944162
 42
-0.0949
  0
VERTEX
  8
0
 10
4.85051
 20
4.002654
 42
-0.028009
  0
VERTEX
  8
0
 10
4.844172
 20
4.067512
 42
0.065252
  0
VERTEX
  8
0
 10
4.831794
 20
4.153969
 42
-0.28935
  0
VERTEX
  8
0
 10
4.7926
 20
4.137831
 42
-0.146403
  0
VERTEX
  8
0
 10
4.776476
 20
4.192979
 42
-0.04141
  0
VERTEX
  8
0
 10
4.781286
 20
4.253473
 42
0.086757
  0
VERTEX
  8
0
 10
4.783378
 20
4.319969
 42
0.100638
  0
VERTEX
  8
0
 10
4.746778
 20
4.228324
 42
0.171949
  0
VERTEX
  8
0
 10
4.760322
 20
4.126303
 42
-0.237645
  0
VERTEX
  8
0
 10
4.80746
 20
4.082742
 42
-0.070989
  0
VERTEX
  8
0
 10
4.819679
 20
4.015058
 42
0.121831
  0
VERTEX
  8
0
 10
4.843324
 20
3.921107
 42
0.005228
  0
VERTEX
  8
0
 10
4.867524
 20
3.894486
 42
-0.04437
  0
VERTEX
  8
0
 10
4.924803
 20
3.8247
 42
-0.106737
  0
VERTEX
  8
0
 10
4.958601
 20
3.734357
 42
-0.133916
  0
VERTEX
  8
0
 10
4.996355
 20
3.567492
 42
-0.070017
  0
VERTEX
  8
0
 10
4.970129
 20
3.395439
 42
0.221055
  0
VERTEX
  8
0
 10
4.927079
 20
3.457762
 42
0.234776
  0
VERTEX
  8
0
 10
4.910107
 20
3.45923
 42
0.447448
  0
VERTEX
  8
0
 10
4.910185
 20
3.446162
 42
-0.038455
  0
VERTEX
  8
0
 10
4.928356
 20
3.323571
 42
-0.052198
  0
VERTEX
  8
0
 10
4.927329
 20
3.298381
 42
-0.326346
  0
VERTEX
  8
0
 10
4.920749
 20
3.288084
 42
-0.220154
  0
VERTEX
  8
0
 10
4.906953
 20
3.299033
 42
-0.041729
  0
VERTEX
  8
0
 10
4.884279
 20
3.337583
 42
0.338093
  0
VERTEX
  8
0
 10
4.870051
 20
3.317577
 42
0.090481
  0
VERTEX
  8
0
 10
4.879179
 20
3.290785
 42
-0.185284
  0
VERTEX
  8
0
 10
4.888889
 20
3.243056
 42
-0.091751
  0
VERTEX
  8
0
 10
4.866125
 20
3.113161
 42
0.00404
  0
VERTEX
  8
0
 10
4.854851
 20
3.074967
 42
0.064184
  0
VERTEX
  8
0
 10
4.833125
 20
3.118391
 42
-0.062366
  0
VERTEX
  8
0
 10
4.810112
 20
3.159612
 42
0.514146
  0
VERTEX
  8
0
 10
4.78965
 20
3.15356
 42
0.277057
  0
VERTEX
  8
0
 10
4.791667
 20
3.131944
 42
-0.15495
  0
VERTEX
  8
0
 10
4.818521
 20
3.051302
 42
-0.445398
  0
VERTEX
  8
0
 10
4.770833
 20
3.013889
 42
0.02655
  0
VERTEX
  8
0
 10
4.746114
 20
3.029063
 42
-0.390482
  0
VERTEX
  8
0
 10
4.743564
 20
3.031545
 42
0.123969
  0
VERTEX
  8
0
 10
4.73025
 20
3.059944
 42
0.347142
  0
VERTEX
  8
0
 10
4.719018
 20
3.061432
 42
0.167799
  0
VERTEX
  8
0
 10
4.713216
 20
3.049359
 42
0.045614
  0
VERTEX
  8
0
 10
4.710674
 20
3.005806
 42
-0.067388
  0
VERTEX
  8
0
 10
4.708333
 20
2.972222
 42
-0.424328
  0
VERTEX
  8
0
 10
4.692154
 20
2.966598
 42
-0.078966
  0
VERTEX
  8
0
 10
4.662158
 20
2.982537
 42
-0.024688
  0
VERTEX
  8
0
 10
4.577569
 20
3.051716
 42
0.012052
  0
VERTEX
  8
0
 10
4.508487
 20
3.109833
 42
0.066414
  0
VERTEX
  8
0
 10
4.451378
 20
3.146439
 42
0.127332
  0
VERTEX
  8
0
 10
4.34932
 20
3.190095
 42
-0.135214
  0
VERTEX
  8
0
 10
4.257708
 20
3.229439
 42
-0.075745
  0
VERTEX
  8
0
 10
4.125763
 20
3.264187
 42
0.05334
  0
VERTEX
  8
0
 10
4.017932
 20
3.2963
 42
0.080755
  0
VERTEX
  8
0
 10
3.886883
 20
3.315712
 42
0.028314
  0
VERTEX
  8
0
 10
3.758559
 20
3.306034
 42
-0.037424
  0
VERTEX
  8
0
 10
3.614746
 20
3.296878
 42
-0.106761
  0
VERTEX
  8
0
 10
3.471515
 20
3.330883
 42
0.014532
  0
VERTEX
  8
0
 10
3.302202
 20
3.325997
 42
-0.025123
  0
VERTEX
  8
0
 10
3.063591
 20
3.322581
 42
-0.08481
  0
VERTEX
  8
0
 10
2.83979
 20
3.367772
 42
0.012609
  0
VERTEX
  8
0
 10
2.625457
 20
3.360608
 42
-0.026233
  0
VERTEX
  8
0
 10
2.326559
 20
3.355949
 42
-0.077523
  0
VERTEX
  8
0
 10
2.032844
 20
3.413883
 42
-0.024921
  0
VERTEX
  8
0
 10
1.934532
 20
3.458609
 42
0.077688
  0
VERTEX
  8
0
 10
1.74465
 20
3.529161
 42
-0.072215
  0
VERTEX
  8
0
 10
1.631101
 20
3.711301
 42
-0.163024
  0
VERTEX
  8
0
 10
1.617844
 20
3.928024
 42
0.401394
  0
VERTEX
  8
0
 10
1.591956
 20
3.923767
 42
0.104035
  0
VERTEX
  8
0
 10
1.58578
 20
3.893942
 42
-0.233457
  0
VERTEX
  8
0
 10
1.567121
 20
3.845025
 42
0.221954
  0
VERTEX
  8
0
 10
1.553452
 20
3.826497
 42
-0.29804
  0
VERTEX
  8
0
 10
1.539454
 20
3.81044
 42
-0.097837
  0
VERTEX
  8
0
 10
1.539454
 20
4.446775
 42
0.383931
  0
VERTEX
  8
0
 10
1.528788
 20
4.458294
 42
0.141463
  0
VERTEX
  8
0
 10
1.518633
 20
4.448337
 42
-0.157444
  0
VERTEX
  8
0
 10
1.507176
 20
4.437553
 42
-0.007677
  0
VERTEX
  8
0
 10
1.496634
 20
4.29388
 42
0.025022
  0
VERTEX
  8
0
 10
1.483522
 20
4.033305
 42
0.079956
  0
VERTEX
  8
0
 10
1.523315
 20
3.782774
 42
0.309439
  0
VERTEX
  8
0
 10
1.546898
 20
3.78312
 42
0.103383
  0
VERTEX
  8
0
 10
1.560227
 20
3.803148
 42
-0.122592
  0
VERTEX
  8
0
 10
1.578649
 20
3.828885
 42
0.109954
  0
VERTEX
  8
0
 10
1.705454
 20
3.517635
 42
-0.027913
  0
VERTEX
  8
0
 10
1.668804
 20
3.520825
 42
0.045606
  0
VERTEX
  8
0
 10
1.606315
 20
3.524551
 42
0.001351
  0
VERTEX
  8
0
 10
1.434028
 20
3.513889
 42
0.11697
  0
VERTEX
  8
0
 10
1.218982
 20
3.450772
 42
0.395297
  0
VERTEX
  8
0
 10
1.22609
 20
3.434057
 42
-0.017102
  0
VERTEX
  8
0
 10
1.230508
 20
3.430024
 42
-0.092168
  0
VERTEX
  8
0
 10
1.653003
 20
3.485356
 42
-0.068461
  0
VERTEX
  8
0
 10
1.860792
 20
3.44364
 42
-0.088795
  0
VERTEX
  8
0
 10
2.044372
 20
3.340106
 42
0.090107
  0
VERTEX
  8
0
 10
2.067672
 20
3.334909
 42
-0.222652
  0
VERTEX
  8
0
 10
2.104317
 20
3.319356
 42
-0.054192
  0
VERTEX
  8
0
 10
1.976742
 20
3.280417
 42
0.012991
  0
VERTEX
  8
0
 10
1.91065
 20
3.264022
 42
0.127055
  0
VERTEX
  8
0
 10
1.996071
 20
3.260751
 42
0.029764
  0
VERTEX
  8
0
 10
2.096295
 20
3.28645
 42
-0.019504
  0
VERTEX
  8
0
 10
2.186395
 20
3.31071
 42
-0.066035
  0
VERTEX
  8
0
 10
2.274928
 20
3.319356
 42
0.045969
  0
VERTEX
  8
0
 10
2.454016
 20
3.30496
 42
0.014701
  0
VERTEX
  8
0
 10
2.637426
 20
3.312335
 42
-0.020778
  0
VERTEX
  8
0
 10
2.855929
 20
3.319356
 42
0.004943
  0
VERTEX
  8
0
 10
2.87382
 20
3.316443
 42
-0.039691
  0
VERTEX
  8
0
 10
2.924174
 20
3.30586
 42
-0.130392
  0
VERTEX
  8
0
 10
2.966596
 20
3.280161
 42
0.043661
  0
VERTEX
  8
0
 10
2.861346
 20
3.238312
 42
-0.03688
  0
VERTEX
  8
0
 10
2.760231
 20
3.197159
 42
-0.101703
  0
VERTEX
  8
0
 10
2.646124
 20
3.185633
 42
0.197828
  0
VERTEX
  8
0
 10
2.737859
 20
3.169955
 42
0.051408
  0
VERTEX
  8
0
 10
2.838983
 20
3.20312
 42
-0.024844
  0
VERTEX
  8
0
 10
2.914584
 20
3.230684
 42
-0.085173
  0
VERTEX
  8
0
 10
2.989653
 20
3.240967
 42
-0.064046
  0
VERTEX
  8
0
 10
3.152365
 20
3.275003
 42
-0.022119
  0
VERTEX
  8
0
 10
3.317199
 20
3.28008
 42
0.019776
  0
VERTEX
  8
0
 10
3.483042
 20
3.284772
 42
0.005593
  0
VERTEX
  8
0
 10
3.508723
 20
3.281113
 42
-0.099103
  0
VERTEX
  8
0
 10
3.61446
 20
3.252494
 42
-0.192451
  0
VERTEX
  8
0
 10
3.564262
 20
3.215475
 42
-0.058001
  0
VERTEX
  8
0
 10
3.499029
 20
3.207247
 42
0.097546
  0
VERTEX
  8
0
 10
3.416181
 20
3.19255
 42
0.138808
  0
VERTEX
  8
0
 10
3.46787
 20
3.181286
 42
0.033884
  0
VERTEX
  8
0
 10
3.527273
 20
3.187436
 42
-0.034326
  0
VERTEX
  8
0
 10
3.575265
 20
3.19255
 42
-0.107218
  0
VERTEX
  8
0
 10
3.716409
 20
3.26006
 42
-0.074971
  0
VERTEX
  8
0
 10
3.874411
 20
3.272669
 42
-0.078574
  0
VERTEX
  8
0
 10
4.183932
 20
3.197161
 42
-0.103599
  0
VERTEX
  8
0
 10
4.116591
 20
3.163029
 42
-0.031717
  0
VERTEX
  8
0
 10
4.040134
 20
3.147357
 42
0.097713
  0
VERTEX
  8
0
 10
3.92571
 20
3.114161
 42
0.097866
  0
VERTEX
  8
0
 10
4.005639
 20
3.114551
 42
0.026574
  0
VERTEX
  8
0
 10
4.092945
 20
3.136293
 42
-0.033192
  0
VERTEX
  8
0
 10
4.201426
 20
3.16214
 42
-0.102825
  0
VERTEX
  8
0
 10
4.313044
 20
3.157967
 42
-0.035424
  0
VERTEX
  8
0
 10
4.364281
 20
3.144645
 42
0.009218
  0
VERTEX
  8
0
 10
4.389126
 20
3.137217
 42
-0.061921
  0
VERTEX
  8
0
 10
4.560487
 20
3.029252
 42
-0.049058
  0
VERTEX
  8
0
 10
4.771851
 20
2.825967
 42
-0.182837
  0
VERTEX
  8
0
 10
4.724298
 20
2.770633
 42
-0.117732
  0
VERTEX
  8
0
 10
4.654267
 20
2.749882
 42
-0.029613
  0
VERTEX
  8
0
 10
4.648793
 20
2.772202
 42
0.110958
  0
VERTEX
  8
0
 10
4.633517
 20
2.814437
 42
0.141594
  0
VERTEX
  8
0
 10
4.615072
 20
2.813285
 42
0.484283
  0
VERTEX
  8
0
 10
4.610461
 20
2.7983
 42
0.011845
  0
VERTEX
  8
0
 10
4.615607
 20
2.785535
 42
-0.076257
  0
VERTEX
  8
0
 10
4.62793
 20
2.745348
 42
-0.311769
  0
VERTEX
  8
0
 10
4.610461
 20
2.710687
 42
0.238991
  0
VERTEX
  8
0
 10
4.556222
 20
2.680149
 42
0.134774
  0
VERTEX
  8
0
 10
4.550769
 20
2.634188
 42
-0.159621
  0
VERTEX
  8
0
 10
4.544276
 20
2.588975
 42
-0.155158
  0
VERTEX
  8
0
 10
4.523789
 20
2.573458
 42
-0.081707
  0
VERTEX
  8
0
 10
4.482639
 20
2.565972
 42
0.095954
  0
VERTEX
  8
0
 10
4.205074
 20
2.467137
 42
-0.057858
  0
VERTEX
  8
0
 10
4.080651
 20
2.412424
 42
-0.172647
  0
VERTEX
  8
0
 10
3.953376
 20
2.422493
 42
-0.076915
  0
VERTEX
  8
0
 10
3.874587
 20
2.434784
 42
0.063057
  0
VERTEX
  8
0
 10
3.815043
 20
2.445549
 42
0.369728
  0
VERTEX
  8
0
 10
3.839474
 20
2.416322
 42
-0.274477
  0
VERTEX
  8
0
 10
3.858849
 20
2.399437
 42
-0.131786
  0
VERTEX
  8
0
 10
3.590908
 20
2.349864
 42
-0.050958
  0
VERTEX
  8
0
 10
3.442642
 20
2.381276
 42
-0.02221
  0
VERTEX
  8
0
 10
3.254792
 20
2.45016
 42
0.347042
  0
VERTEX
  8
0
 10
3.238852
 20
2.432911
 42
0.149593
  0
VERTEX
  8
0
 10
3.253078
 20
2.418217
 42
-0.141888
  0
VERTEX
  8
0
 10
3.270931
 20
2.399437
 42
-0.83465
  0
VERTEX
  8
0
 10
3.273957
 20
2.392521
 42
-0.06941
  0
VERTEX
  8
0
 10
3.258826
 20
2.378687
 42
-0.029697
  0
VERTEX
  8
0
 10
3.215597
 20
2.351021
 42
-0.207081
  0
VERTEX
  8
0
 10
2.784457
 20
2.417882
 42
0.648726
  0
VERTEX
  8
0
 10
2.768318
 20
2.383299
 42
0.053136
  0
VERTEX
  8
0
 10
2.784726
 20
2.375242
 42
-0.089642
  0
VERTEX
  8
0
 10
2.810705
 20
2.360974
 42
-0.403335
  0
VERTEX
  8
0
 10
2.811465
 20
2.35282
 42
-0.1343
  0
VERTEX
  8
0
 10
2.795983
 20
2.344104
 42
-0.129064
  0
VERTEX
  8
0
 10
2.687541
 20
2.317117
 42
-0.042893
  0
VERTEX
  8
0
 10
2.575095
 20
2.329351
 42
0.075767
  0
VERTEX
  8
0
 10
2.413261
 20
2.339493
 42
-0.113491
  0
VERTEX
  8
0
 10
2.310226
 20
2.351593
 42
-0.090462
  0
VERTEX
  8
0
 10
2.226512
 20
2.406354
 42
0.310651
  0
VERTEX
  8
0
 10
2.214983
 20
2.378687
 42
0.076481
  0
VERTEX
  8
0
 10
2.23434
 20
2.364611
 42
-0.068103
  0
VERTEX
  8
0
 10
2.256478
 20
2.348646
 42
-0.222155
  0
VERTEX
  8
0
 10
2.265706
 20
2.323354
 42
-0.029258
  0
VERTEX
  8
0
 10
2.076354
 20
2.313977
 42
-0.074004
  0
VERTEX
  8
0
 10
1.892361
 20
2.340278
 42
-0.116551
  0
VERTEX
  8
0
 10
1.807243
 20
2.398836
 42
0.062416
  0
VERTEX
  8
0
 10
1.74926
 20
2.445549
 42
0.359112
  0
VERTEX
  8
0
 10
1.747694
 20
2.420197
 42
0.084722
  0
VERTEX
  8
0
 10
1.769995
 20
2.400874
 42
-0.154081
  0
VERTEX
  8
0
 10
1.792039
 20
2.379076
 42
-0.252271
  0
VERTEX
  8
0
 10
1.788404
 20
2.366336
 42
-0.093037
  0
VERTEX
  8
0
 10
1.767704
 20
2.351021
 42
-0.136716
  0
VERTEX
  8
0
 10
1.61489
 20
2.36033
 42
-0.047837
  0
VERTEX
  8
0
 10
1.48024
 20
2.424228
 42
0.024281
  0
VERTEX
  8
0
 10
1.385915
 20
2.472645
 42
0.075521
  0
VERTEX
  8
0
 10
1.285843
 20
2.500882
 42
0.020931
  0
VERTEX
  8
0
 10
1.248494
 20
2.520255
 42
-0.098106
  0
VERTEX
  8
0
 10
1.179787
 20
2.565437
 42
-0.153116
  0
VERTEX
  8
0
 10
1.170968
 20
2.534698
 42
-0.253832
  0
VERTEX
  8
0
 10
1.152163
 20
2.527006
 42
-0.101251
  0
VERTEX
  8
0
 10
1.100539
 20
2.54854
 42
0.067707
  0
VERTEX
  8
0
 10
1.064508
 20
2.565437
 42
0.0437
  0
VERTEX
  8
0
 10
0.93773
 20
2.637999
 42
-0.053216
  0
VERTEX
  8
0
 10
0.789899
 20
2.725332
 42
-0.172077
  0
VERTEX
  8
0
 10
0.697925
 20
2.865161
 42
-0.104063
  0
VERTEX
  8
0
 10
0.70489
 20
3.023521
 42
0.40992
  0
VERTEX
  8
0
 10
0.693929
 20
3.048073
 42
0.50288
  0
VERTEX
  8
0
 10
0.676162
 20
3.031358
 42
0.016628
  0
VERTEX
  8
0
 10
0.672576
 20
2.975388
 42
-0.064138
  0
VERTEX
  8
0
 10
0.661036
 20
2.8813
 42
-0.168392
  0
VERTEX
  8
0
 10
0.609161
 20
3.03289
 42
-0.083508
  0
VERTEX
  8
0
 10
0.633369
 20
3.201772
 42
0.021106
  0
VERTEX
  8
0
 10
0.676827
 20
3.280439
 42
-0.024054
  0
VERTEX
  8
0
 10
0.72559
 20
3.367772
 42
0.396563
  0
VERTEX
  8
0
 10
0.708532
 20
3.372543
 42
0.107069
  0
VERTEX
  8
0
 10
0.696767
 20
3.35715
 42
-0.17197
  0
VERTEX
  8
0
 10
0.681786
 20
3.340106
 42
0.007028
  0
VERTEX
  8
0
 10
0.651844
 20
3.293319
 42
-0.030708
  0
VERTEX
  8
0
 10
0.582647
 20
3.19255
 42
-0.119093
  0
VERTEX
  8
0
 10
0.601874
 20
3.298763
 42
-0.041941
  0
VERTEX
  8
0
 10
0.653259
 20
3.390312
 42
0.023112
  0
VERTEX
  8
0
 10
0.693314
 20
3.457689
 42
-0.179413
  0
VERTEX
  8
0
 10
0.752082
 20
3.563505
 42
-0.057563
  0
VERTEX
  8
0
 10
0.855814
 20
3.630751
 42
0.066232
  0
VERTEX
  8
0
 10
0.967489
 20
3.704995
 42
0.192827
  0
VERTEX
  8
0
 10
1.025315
 20
3.828885
 42
0.065885
  0
VERTEX
  8
0
 10
1.061485
 20
3.941694
 42
0.071175
  0
VERTEX
  8
0
 10
1.080649
 20
4.264636
 42
-0.050735
  0
VERTEX
  8
0
 10
1.135399
 20
4.466874
 42
-0.018001
  0
VERTEX
  8
0
 10
1.215289
 20
4.653537
 42
0.016079
  0
VERTEX
  8
0
 10
1.291151
 20
4.82953
 42
0.045761
  0
VERTEX
  8
0
 10
1.345787
 20
5.018554
 42
-0.047255
  0
VERTEX
  8
0
 10
1.434484
 20
5.148151
 42
0.031839
  0
VERTEX
  8
0
 10
1.513319
 20
5.258687
 42
0.093871
  0
VERTEX
  8
0
 10
1.562511
 20
5.387444
 42
-0.23233
  0
VERTEX
  8
0
 10
1.566488
 20
5.455775
 42
-0.08722
  0
VERTEX
  8
0
 10
1.611352
 20
5.501908
 42
0.024244
  0
VERTEX
  8
0
 10
1.638594
 20
5.525778
 42
0.725244
  0
VERTEX
  8
0
 10
1.657167
 20
5.546029
 42
-0.269733
  0
VERTEX
  8
0
 10
1.66165
 20
5.571889
 42
0.010065
  0
VERTEX
  8
0
 10
1.689257
 20
5.615875
 42
-0.036849
  0
VERTEX
  8
0
 10
1.748851
 20
5.703621
 42
-0.113272
  0
VERTEX
  8
0
 10
1.832261
 20
5.770167
 42
-0.088646
  0
VERTEX
  8
0
 10
1.786219
 20
5.679742
 42
0.036958
  0
VERTEX
  8
0
 10
1.740036
 20
5.599556
 42
-0.055206
  0
VERTEX
  8
0
 10
1.697547
 20
5.48053
 42
0.03006
  0
VERTEX
  8
0
 10
1.663389
 20
5.394138
 42
0.085775
  0
VERTEX
  8
0
 10
1.650121
 20
5.299833
 42
0.349654
  0
VERTEX
  8
0
 10
1.639013
 20
5.290838
 42
0.081447
  0
VERTEX
  8
0
 10
1.638945
 20
5.273812
 42
-0.095835
  0
VERTEX
  8
0
 10
1.638594
 20
5.256026
 42
0.342347
  0
VERTEX
  8
0
 10
1.651021
 20
5.252448
 42
0.119267
  0
VERTEX
  8
0
 10
1.659133
 20
5.262482
 42
-0.186994
  0
VERTEX
  8
0
 10
1.673178
 20
5.276776
 42
-0.156103
  0
VERTEX
  8
0
 10
1.756178
 20
5.398972
 42
0.029087
  0
VERTEX
  8
0
 10
1.716983
 20
5.232971
 42
0.201887
  0
VERTEX
  8
0
 10
1.705454
 20
5.14536
 42
0.181248
  0
VERTEX
  8
0
 10
1.748389
 20
5.195941
 42
-0.060356
  0
VERTEX
  8
0
 10
1.768602
 20
5.228787
 42
-0.214284
  0
VERTEX
  8
0
 10
1.799983
 20
5.2445
 42
-0.009798
  0
VERTEX
  8
0
 10
1.777015
 20
5.158163
 42
0.002468
  0
VERTEX
  8
0
 10
1.764257
 20
5.111974
 42
0.05202
  0
VERTEX
  8
0
 10
1.754092
 20
5.058677
 42
0.104724
  0
VERTEX
  8
0
 10
1.755403
 20
5.047232
 42
0.430252
  0
VERTEX
  8
0
 10
1.759916
 20
5.044748
 42
0.152434
  0
VERTEX
  8
0
 10
1.775378
 20
5.063143
 42
0.045111
  0
VERTEX
  8
0
 10
1.794125
 20
5.106819
 42
0.045976
  0
VERTEX
  8
0
 10
1.815216
 20
5.18786
 42
0.099862
  0
VERTEX
  8
0
 10
1.811511
 20
5.272167
 42
0.434158
  0
VERTEX
  8
0
 10
1.778313
 20
5.27198
 42
0.066832
  0
VERTEX
  8
0
 10
1.750336
 20
5.239781
 42
-0.028411
  0
VERTEX
  8
0
 10
1.741045
 20
5.227727
 42
-0.752086
  0
VERTEX
  8
0
 10
1.736284
 20
5.226798
 42
-0.066784
  0
VERTEX
  8
0
 10
1.74465
 20
5.283693
 42
0.129688
  0
VERTEX
  8
0
 10
1.76836
 20
5.327228
 42
0.036788
  0
VERTEX
  8
0
 10
1.777668
 20
5.380195
 42
-0.044567
  0
VERTEX
  8
0
 10
1.788456
 20
5.438167
 42
0.419672
  0
VERTEX
  8
0
 10
1.750892
 20
5.434163
 42
0.056995
  0
VERTEX
  8
0
 10
1.716131
 20
5.393259
 42
-0.167418
  0
VERTEX
  8
0
 10
1.693314
 20
5.369358
 42
-0.254133
  0
VERTEX
  8
0
 10
1.690043
 20
5.382455
 42
-0.031495
  0
VERTEX
  8
0
 10
1.693926
 20
5.422026
 42
-0.10418
  0
VERTEX
  8
0
 10
1.965983
 20
5.876222
 42
-0.124837
  0
VERTEX
  8
0
 10
2.099707
 20
5.913111
 42
0.004596
  0
VERTEX
  8
0
 10
2.140204
 20
5.96278
 42
-0.05371
  0
VERTEX
  8
0
 10
2.293875
 20
6.12815
 42
-0.186258
  0
VERTEX
  8
0
 10
2.496262
 20
6.201307
 42
-0.001959
  0
VERTEX
  8
0
 10
2.470027
 20
6.170534
 42
0.073589
  0
VERTEX
  8
0
 10
2.337178
 20
5.979974
 42
0.191227
  0
VERTEX
  8
0
 10
2.351126
 20
5.961078
 42
-0.020326
  0
VERTEX
  8
0
 10
2.353318
 20
5.959222
 42
-0.002587
  0
VERTEX
  8
0
 10
2.323714
 20
5.909397
 42
0.026184
  0
VERTEX
  8
0
 10
2.236574
 20
5.751708
 42
0.074932
  0
VERTEX
  8
0
 10
2.182706
 20
5.5765
 42
0.297991
  0
VERTEX
  8
0
 10
2.220605
 20
5.574355
 42
0.090147
  0
VERTEX
  8
0
 10
2.248507
 20
5.60288
 42
-0.150011
  0
VERTEX
  8
0
 10
2.286456
 20
5.636444
 42
-0.021325
  0
VERTEX
  8
0
 10
2.242473
 20
5.505901
 42
0.050963
  0
VERTEX
  8
0
 10
2.171179
 20
5.260637
 42
-0.267149
  0
VERTEX
  8
0
 10
2.181553
 20
5.224904
 42
0.267172
  0
VERTEX
  8
0
 10
2.191929
 20
5.189165
 42
0.216899
  0
VERTEX
  8
0
 10
2.228816
 20
5.22836
 42
-0.216912
  0
VERTEX
  8
0
 10
2.265706
 20
5.267554
 42
0.038465
  0
VERTEX
  8
0
 10
2.242229
 20
5.166796
 42
0.049321
  0
VERTEX
  8
0
 10
2.237204
 20
5.104211
 42
0.3151
  0
VERTEX
  8
0
 10
2.24463
 20
5.084039
 42
0.231995
  0
VERTEX
  8
0
 10
2.258306
 20
5.103289
 42
0.05043
  0
VERTEX
  8
0
 10
2.272026
 20
5.158972
 42
-0.00432
  0
VERTEX
  8
0
 10
2.282346
 20
5.219021
 42
0.030461
  0
VERTEX
  8
0
 10
2.302594
 20
5.366694
 42
0.073727
  0
VERTEX
  8
0
 10
2.254915
 20
5.302773
 42
-0.050963
  0
VERTEX
  8
0
 10
2.210372
 20
5.239888
 42
-0.073256
  0
VERTEX
  8
0
 10
2.241399
 20
5.426308
 42
-0.022942
  0
VERTEX
  8
0
 10
2.30786
 20
5.606076
 42
0.006017
  0
VERTEX
  8
0
 10
2.341789
 20
5.691778
 42
-0.188496
  0
VERTEX
  8
0
 10
2.375023
 20
5.758839
 42
0.201451
  0
VERTEX
  8
0
 10
2.40865
 20
5.830111
 42
0.243582
  0
VERTEX
  8
0
 10
2.370269
 20
5.808702
 42
0.047292
  0
VERTEX
  8
0
 10
2.341706
 20
5.76288
 42
-0.013437
  0
VERTEX
  8
0
 10
2.330262
 20
5.7425
 42
-0.089195
  0
VERTEX
  8
0
 10
2.291103
 20
5.677894
 42
-0.025351
  0
VERTEX
  8
0
 10
2.23667
 20
5.620971
 42
0.002932
  0
VERTEX
  8
0
 10
2.219594
 20
5.604167
 42
-0.110759
  0
VERTEX
  8
0
 10
2.313545
 20
5.847691
 42
-0.06028
  0
VERTEX
  8
0
 10
2.48704
 20
6.051446
 42
-0.076635
  0
VERTEX
  8
0
 10
2.486272
 20
6.059473
 42
0.310644
  0
VERTEX
  8
0
 10
2.480124
 20
6.074501
 42
0.000044
  0
VERTEX
  8
0
 10
2.479099
 20
6.07359
 42
-0.026918
  0
VERTEX
  8
0
 10
2.435916
 20
6.038206
 42
-0.119311
  0
VERTEX
  8
0
 10
2.385594
 20
6.014557
 42
-0.019764
  0
VERTEX
  8
0
 10
2.47897
 20
6.136175
 42
-0.05324
  0
VERTEX
  8
0
 10
2.586179
 20
6.240501
 42
-0.129574
  0
VERTEX
  8
0
 10
2.592431
 20
6.277499
 42
-0.087706
  0
VERTEX
  8
0
 10
2.626035
 20
6.331591
 42
-0.17534
  0
VERTEX
  8
0
 10
2.807514
 20
6.42264
 42
0.05865
  0
VERTEX
  8
0
 10
2.955052
 20
6.523527
 42
-0.041188
  0
VERTEX
  8
0
 10
3.075728
 20
6.61026
 42
-0.115476
  0
VERTEX
  8
0
 10
3.222514
 20
6.655503
 42
0.059934
  0
VERTEX
  8
0
 10
3.443847
 20
6.738503
 42
-0.087536
  0
VERTEX
  8
0
 10
3.40648
 20
6.658965
 42
-0.030154
  0
VERTEX
  8
0
 10
3.350354
 20
6.589804
 42
0.020949
  0
VERTEX
  8
0
 10
3.293986
 20
6.521778
 42
0.018721
  0
VERTEX
  8
0
 10
3.107056
 20
6.353689
 42
0.039248
  0
VERTEX
  8
0
 10
2.939794
 20
6.164418
 42
0.06408
  0
VERTEX
  8
0
 10
2.817059
 20
5.949208
 42
0.086421
  0
VERTEX
  8
0
 10
2.763707
 20
5.703306
 42
0.229294
  0
VERTEX
  8
0
 10
2.765076
 20
5.692355
 42
0.509785
  0
VERTEX
  8
0
 10
2.772929
 20
5.691778
 42
0.095578
  0
VERTEX
  8
0
 10
2.838639
 20
5.770239
 42
-0.044479
  0
VERTEX
  8
0
 10
2.878985
 20
5.825501
 42
-0.026054
  0
VERTEX
  8
0
 10
2.864724
 20
5.749631
 42
0.020914
  0
VERTEX
  8
0
 10
2.847472
 20
5.659513
 42
0.074439
  0
VERTEX
  8
0
 10
2.846707
 20
5.571889
 42
-0.080286
  0
VERTEX
  8
0
 10
2.844187
 20
5.544117
 42
0.274907
  0
VERTEX
  8
0
 10
2.851318
 20
5.509639
 42
0.28711
  0
VERTEX
  8
0
 10
2.898568
 20
5.526005
 42
-0.182666
  0
VERTEX
  8
0
 10
2.934319
 20
5.544222
 42
-0.032039
  0
VERTEX
  8
0
 10
2.90819
 20
5.410837
 42
0.025686
  0
VERTEX
  8
0
 10
2.883795
 20
5.291683
 42
0.072325
  0
VERTEX
  8
0
 10
2.883597
 20
5.16611
 42
0.336901
  0
VERTEX
  8
0
 10
2.917925
 20
5.152206
 42
0.094738
  0
VERTEX
  8
0
 10
2.952001
 20
5.174449
 42
-0.166526
  0
VERTEX
  8
0
 10
3.001181
 20
5.200693
 42
-0.080539
  0
VERTEX
  8
0
 10
3.001328
 20
5.114035
 42
0.079706
  0
VERTEX
  8
0
 10
3.001566
 20
5.078886
 42
0.427767
  0
VERTEX
  8
0
 10
3.00995
 20
5.069267
 42
0.204134
  0
VERTEX
  8
0
 10
3.021513
 20
5.082896
 42
0.067091
  0
VERTEX
  8
0
 10
3.03129
 20
5.117493
 42
0.203299
  0
VERTEX
  8
0
 10
3.012707
 20
5.239888
 42
0.166797
  0
VERTEX
  8
0
 10
2.961561
 20
5.21229
 42
-0.108748
  0
VERTEX
  8
0
 10
2.927866
 20
5.190737
 42
-0.280709
  0
VERTEX
  8
0
 10
2.91523
 20
5.195107
 42
-0.128175
  0
VERTEX
  8
0
 10
2.906653
 20
5.216833
 42
-0.04336
  0
VERTEX
  8
0
 10
2.959313
 20
5.535926
 42
0.001787
  0
VERTEX
  8
0
 10
2.973514
 20
5.599556
 42
0.088413
  0
VERTEX
  8
0
 10
2.932322
 20
5.577797
 42
-0.095854
  0
VERTEX
  8
0
 10
2.874374
 20
5.548833
 42
-0.084919
  0
VERTEX
  8
0
 10
2.877138
 20
5.692276
 42
-0.02994
  0
VERTEX
  8
0
 10
2.912173
 20
5.82713
 42
0.009923
  0
VERTEX
  8
0
 10
2.934319
 20
5.903889
 42
0.675677
  0
VERTEX
  8
0
 10
2.906653
 20
5.913111
 42
-0.04235
  0
VERTEX
  8
0
 10
2.820282
 20
5.781216
 42
0.000369
  0
VERTEX
  8
0
 10
2.812124
 20
5.770167
 42
-0.091898
  0
VERTEX
  8
0
 10
2.823982
 20
5.86199
 42
-0.02776
  0
VERTEX
  8
0
 10
2.858528
 20
5.952743
 42
0.023346
  0
VERTEX
  8
0
 10
2.890512
 20
6.035307
 42
-0.080587
  0
VERTEX
  8
0
 10
3.015551
 20
6.219457
 42
-0.025708
  0
VERTEX
  8
0
 10
3.178277
 20
6.375163
 42
0.028659
  0
VERTEX
  8
0
 10
3.337792
 20
6.528696
 42
-0.015629
  0
VERTEX
  8
0
 10
3.318078
 20
6.453012
 42
0.08929
  0
VERTEX
  8
0
 10
3.289375
 20
6.272779
 42
0.235895
  0
VERTEX
  8
0
 10
3.316601
 20
6.291274
 42
-0.056282
  0
VERTEX
  8
0
 10
3.325769
 20
6.300963
 42
-0.478783
  0
VERTEX
  8
0
 10
3.333179
 20
6.300446
 42
-0.035116
  0
VERTEX
  8
0
 10
3.300093
 20
6.175556
 42
0.049777
  0
VERTEX
  8
0
 10
3.262611
 20
6.021854
 42
0.149048
  0
VERTEX
  8
0
 10
3.289375
 20
5.864694
 42
0.364445
  0
VERTEX
  8
0
 10
3.317427
 20
5.876394
 42
-0.009046
  0
VERTEX
  8
0
 10
3.321653
 20
5.880833
 42
-0.153057
  0
VERTEX
  8
0
 10
3.338032
 20
5.857598
 42
-0.030805
  0
VERTEX
  8
0
 10
3.348674
 20
5.821934
 42
0.044764
  0
VERTEX
  8
0
 10
3.363894
 20
5.77436
 42
0.187684
  0
VERTEX
  8
0
 10
3.393125
 20
5.7425
 42
-0.173058
  0
VERTEX
  8
0
 10
3.419437
 20
5.778524
 42
-0.398634
  0
VERTEX
  8
0
 10
3.43234
 20
5.775246
 42
-0.136885
  0
VERTEX
  8
0
 10
3.438833
 20
5.747111
 42
0.228069
  0
VERTEX
  8
0
 10
3.483042
 20
5.654889
 42
-0.025
  0
VERTEX
  8
0
 10
3.491573
 20
5.658424
 42
0.181591
  0
VERTEX
  8
0
 10
3.510708
 20
5.671028
 42
0.096259
  0
VERTEX
  8
0
 10
3.570654
 20
5.442778
 42
0.399106
  0
VERTEX
  8
0
 10
3.609849
 20
5.465832
 42
-0.024187
  0
VERTEX
  8
0
 10
3.640017
 20
5.302992
 42
0.036873
  0
VERTEX
  8
0
 10
3.678345
 20
5.113031
 42
0.119442
  0
VERTEX
  8
0
 10
3.768932
 20
4.951693
 42
0.372106
  0
VERTEX
  8
0
 10
3.800046
 20
4.981965
 42
-0.069652
  0
VERTEX
  8
0
 10
3.808126
 20
5.00011
 42
-0.023761
  0
VERTEX
  8
0
 10
3.841447
 20
4.880457
 42
0.056378
  0
VERTEX
  8
0
 10
3.859079
 20
4.827186
 42
0.103924
  0
VERTEX
  8
0
 10
3.866296
 20
4.817299
 42
0.44263
  0
VERTEX
  8
0
 10
3.871714
 20
4.817369
 42
0.158661
  0
VERTEX
  8
0
 10
3.874961
 20
4.843751
 42
0.049393
  0
VERTEX
  8
0
 10
3.864428
 20
4.899081
 42
0.055476
  0
VERTEX
  8
0
 10
3.796599
 20
5.08311
 42
0.279438
  0
VERTEX
  8
0
 10
3.780789
 20
5.063471
 42
0.06636
  0
VERTEX
  8
0
 10
3.78088
 20
5.033417
 42
-0.078523
  0
VERTEX
  8
0
 10
3.780458
 20
5.00011
 42
-0.112121
  0
VERTEX
  8
0
 10
3.682938
 20
5.198482
 42
-0.032849
  0
VERTEX
  8
0
 10
3.642421
 20
5.430244
 42
0.019301
  0
VERTEX
  8
0
 10
3.61446
 20
5.608778
 42
0.271715
  0
VERTEX
  8
0
 10
3.593993
 20
5.584702
 42
0.065711
  0
VERTEX
  8
0
 10
3.592589
 20
5.547235
 42
-0.182837
  0
VERTEX
  8
0
 10
3.582181
 20
5.488889
 42
-0.076168
  0
VERTEX
  8
0
 10
3.545928
 20
5.629004
 42
-0.021785
  0
VERTEX
  8
0
 10
3.535938
 20
5.78445
 42
0.008276
  0
VERTEX
  8
0
 10
3.531457
 20
5.880833
 42
0.245751
  0
VERTEX
  8
0
 10
3.49946
 20
5.843241
 42
0.060427
  0
VERTEX
  8
0
 10
3.493327
 20
5.785657
 42
-0.090785
  0
VERTEX
  8
0
 10
3.483042
 20
5.714833
 42
-0.066943
  0
VERTEX
  8
0
 10
3.481776
 20
5.699584
 42
-0.881582
  0
VERTEX
  8
0
 10
3.478556
 20
5.698705
 42
-0.059954
  0
VERTEX
  8
0
 10
3.469721
 20
5.71857
 42
0.038075
  0
VERTEX
  8
0
 10
3.464597
 20
5.730972
 42
-0.100599
  0
VERTEX
  8
0
 10
3.453105
 20
5.789013
 42
0.049687
  0
VERTEX
  8
0
 10
3.447739
 20
5.829673
 42
0.206017
  0
VERTEX
  8
0
 10
3.427708
 20
5.857778
 42
0.059093
  0
VERTEX
  8
0
 10
3.415031
 20
5.832646
 42
-0.19455
  0
VERTEX
  8
0
 10
3.388514
 20
5.797833
 42
0.04172
  0
VERTEX
  8
0
 10
3.369805
 20
5.855258
 42
-0.049513
  0
VERTEX
  8
0
 10
3.344754
 20
5.936425
 42
-0.15122
  0
VERTEX
  8
0
 10
3.353931
 20
6.023779
 42
0.238768
  0
VERTEX
  8
0
 10
3.342403
 20
6.035775
 42
0.271271
  0
VERTEX
  8
0
 10
3.332604
 20
6.029831
 42
0.091627
  0
VERTEX
  8
0
 10
3.321653
 20
6.003028
 42
0.031784
  0
VERTEX
  8
0
 10
3.31746
 20
5.977104
 42
-0.175439
  0
VERTEX
  8
0
 10
3.298597
 20
5.92464
 42
-0.097031
  0
VERTEX
  8
0
 10
3.306537
 20
6.119219
 42
-0.028595
  0
VERTEX
  8
0
 10
3.363598
 20
6.314233
 42
0.004921
  0
VERTEX
  8
0
 10
3.388514
 20
6.390363
 42
0.240394
  0
VERTEX
  8
0
 10
3.370272
 20
6.384387
 42
0.056926
  0
VERTEX
  8
0
 10
3.355592
 20
6.366125
 42
-0.172949
  0
VERTEX
  8
0
 10
3.321653
 20
6.335031
 42
-0.093444
  0
VERTEX
  8
0
 10
3.331576
 20
6.414633
 42
-0.030269
  0
VERTEX
  8
0
 10
3.360937
 20
6.489982
 42
0.044495
  0
VERTEX
  8
0
 10
3.393125
 20
6.577112
 42
-0.093712
  0
VERTEX
  8
0
 10
3.481313
 20
6.693544
 42
-0.119554
  0
VERTEX
  8
0
 10
3.61446
 20
6.761558
 42
0.22732
  0
VERTEX
  8
0
 10
3.583598
 20
6.782025
 42
0.056548
  0
VERTEX
  8
0
 10
3.54029
 20
6.783429
 42
-0.152485
  0
VERTEX
  8
0
 10
3.471515
 20
6.793836
 42
0.001157
  0
VERTEX
  8
0
 10
3.486565
 20
6.802836
 42
-0.050821
  0
VERTEX
  8
0
 10
3.601576
 20
6.861418
 42
-0.140373
  0
VERTEX
  8
0
 10
3.741265
 20
6.872225
 42
0.501585
  0
VERTEX
  8
0
 10
3.750058
 20
6.898967
 42
-0.173489
  0
VERTEX
  8
0
 10
3.748182
 20
6.920642
 42
0.251503
  0
VERTEX
  8
0
 10
3.701581
 20
6.949817
 42
-0.114745
  0
VERTEX
  8
0
 10
3.665182
 20
6.964447
 42
-0.056256
  0
VERTEX
  8
0
 10
3.867693
 20
6.969613
 42
0.043455
  0
VERTEX
  8
0
 10
4.038667
 20
6.970944
 42
0.140224
  0
VERTEX
  8
0
 10
4.19085
 20
7.031308
 42
0.112568
  0
VERTEX
  8
0
 10
4.185661
 20
6.982315
 42
0.264552
  0
VERTEX
  8
0
 10
4.218517
 20
6.943697
 42
-0.128966
  0
VERTEX
  8
0
 10
4.245386
 20
6.941903
 42
-0.343756
  0
VERTEX
  8
0
 10
4.252147
 20
6.929867
 42
-0.099101
  0
VERTEX
  8
0
 10
4.231232
 20
6.887266
 42
0.128352
  0
VERTEX
  8
0
 10
4.206989
 20
6.833031
 42
-0.057273
  0
VERTEX
  8
0
 10
4.207326
 20
6.803635
 42
0.228776
  0
VERTEX
  8
0
 10
4.218517
 20
6.754642
 42
0.083197
  0
VERTEX
  8
0
 10
4.235148
 20
6.764915
 42
-0.331549
  0
VERTEX
  8
0
 10
4.257708
 20
6.770781
 42
-0.047063
  0
VERTEX
  8
0
 10
4.240506
 20
6.679181
 42
0.061308
  0
VERTEX
  8
0
 10
4.222078
 20
6.569516
 42
0.23232
  0
VERTEX
  8
0
 10
4.262322
 20
6.477974
 42
0.164355
  0
VERTEX
  8
0
 10
4.29113
 20
6.505068
 42
-0.119133
  0
VERTEX
  8
0
 10
4.313044
 20
6.528696
 42
-0.000045
  0
VERTEX
  8
0
 10
4.312879
 20
6.527788
 42
0.040094
  0
VERTEX
  8
0
 10
4.305532
 20
6.464384
 42
0.166019
  0
VERTEX
  8
0
 10
4.322265
 20
6.394974
 42
0.100825
  0
VERTEX
  8
0
 10
4.336869
 20
6.40061
 42
-0.100826
  0
VERTEX
  8
0
 10
4.35147
 20
6.406245
 42
-0.516282
  0
VERTEX
  8
0
 10
4.35685
 20
6.394974
 42
0.077122
  0
VERTEX
  8
0
 10
4.342728
 20
6.319755
 42
0.267458
  0
VERTEX
  8
0
 10
4.368378
 20
6.25664
 42
-0.142979
  0
VERTEX
  8
0
 10
4.395278
 20
6.258975
 42
-0.236933
  0
VERTEX
  8
0
 10
4.408325
 20
6.246952
 42
-0.101147
  0
VERTEX
  8
0
 10
4.411214
 20
6.196993
 42
0.09361
  0
VERTEX
  8
0
 10
4.414602
 20
6.138556
 42
0.378734
  0
VERTEX
  8
0
 10
4.4606
 20
6.113696
 42
0.125692
  0
VERTEX
  8
0
 10
4.445614
 20
6.01081
 42
0.096966
  0
VERTEX
  8
0
 10
4.472128
 20
5.913111
 42
0.429327
  0
VERTEX
  8
0
 10
4.491931
 20
5.918969
 42
-0.410888
  0
VERTEX
  8
0
 10
4.506711
 20
5.92464
 42
-0.107198
  0
VERTEX
  8
0
 10
4.504378
 20
5.854584
 42
0.081421
  0
VERTEX
  8
0
 10
4.500538
 20
5.798592
 42
0.33315
  0
VERTEX
  8
0
 10
4.534378
 20
5.765556
 42
0.129916
  0
VERTEX
  8
0
 10
4.55477
 20
5.788483
 42
-0.239418
  0
VERTEX
  8
0
 10
4.578182
 20
5.809361
 42
-0.072637
  0
VERTEX
  8
0
 10
4.589145
 20
5.73609
 42
0.000119
  0
VERTEX
  8
0
 10
4.589332
 20
5.73279
 42
0.185165
  0
VERTEX
  8
0
 10
4.595226
 20
5.714293
 42
0.373348
  0
VERTEX
  8
0
 10
4.605461
 20
5.714243
 42
0.296545
  0
VERTEX
  8
0
 10
4.614633
 20
5.744049
 42
-0.107324
  0
VERTEX
  8
0
 10
4.610461
 20
5.880833
 42
-0.050424
  0
VERTEX
  8
0
 10
4.618148
 20
5.898605
 42
0.12357
  0
VERTEX
  8
0
 10
4.6266
 20
5.92464
 42
-0.063159
  0
VERTEX
  8
0
 10
4.618907
 20
5.930264
 42
0.312927
  0
VERTEX
  8
0
 10
4.598933
 20
5.936168
 42
0.047112
  0
VERTEX
  8
0
 10
4.582864
 20
5.892708
 42
-0.046724
  0
VERTEX
  8
0
 10
4.566092
 20
5.847418
 42
-0.156032
  0
VERTEX
  8
0
 10
4.534378
 20
5.813972
 42
-0.084681
  0
VERTEX
  8
0
 10
4.53613
 20
5.983913
 42
0.022979
  0
VERTEX
  8
0
 10
4.5436
 20
6.062974
 42
0.136235
  0
VERTEX
  8
0
 10
4.514656
 20
6.021424
 42
-0.044473
  0
VERTEX
  8
0
 10
4.499332
 20
5.993534
 42
-0.223767
  0
VERTEX
  8
0
 10
4.479044
 20
5.979974
 42
-0.089725
  0
VERTEX
  8
0
 10
4.481196
 20
6.073084
 42
-0.032943
  0
VERTEX
  8
0
 10
4.50543
 20
6.158388
 42
0.064555
  0
VERTEX
  8
0
 10
4.534378
 20
6.279696
 42
0.236365
  0
VERTEX
  8
0
 10
4.498761
 20
6.258186
 42
0.071641
  0
VERTEX
  8
0
 10
4.482349
 20
6.217117
 42
-0.147167
  0
VERTEX
  8
0
 10
4.451378
 20
6.1575
 42
-0.180574
  0
VERTEX
  8
0
 10
4.433953
 20
6.218487
 42
-0.04805
  0
VERTEX
  8
0
 10
4.445906
 20
6.28906
 42
0.105355
  0
VERTEX
  8
0
 10
4.455989
 20
6.394974
 42
0.192455
  0
VERTEX
  8
0
 10
4.433417
 20
6.373388
 42
0.057003
  0
VERTEX
  8
0
 10
4.423517
 20
6.341646
 42
-0.066242
  0
VERTEX
  8
0
 10
4.412244
 20
6.307014
 42
-0.207288
  0
VERTEX
  8
0
 10
4.384517
 20
6.284307
 42
-0.069248
  0
VERTEX
  8
0
 10
4.38077
 20
6.393533
 42
-0.025647
  0
VERTEX
  8
0
 10
4.396044
 20
6.494112
 42
0.270716
  0
VERTEX
  8
0
 10
4.363983
 20
6.467533
 42
-0.202252
  0
VERTEX
  8
0
 10
4.333794
 20
6.438779
 42
-0.091896
  0
VERTEX
  8
0
 10
4.345917
 20
6.541918
 42
-0.029749
  0
VERTEX
  8
0
 10
4.382692
 20
6.639624
 42
0.003421
  0
VERTEX
  8
0
 10
4.396044
 20
6.671642
 42
0.30836
  0
VERTEX
  8
0
 10
4.36416
 20
6.666896
 42
0.094611
  0
VERTEX
  8
0
 10
4.34728
 20
6.636648
 42
-0.115787
  0
VERTEX
  8
0
 10
4.322265
 20
6.595557
 42
0.059833
  0
VERTEX
  8
0
 10
4.304884
 20
6.567977
 42
-0.07082
  0
VERTEX
  8
0
 10
4.280134
 20
6.530366
 42
-0.54391
  0
VERTEX
  8
0
 10
4.250794
 20
6.533308
 42
-0.080329
  0
VERTEX
  8
0
 10
4.280185
 20
6.744388
 42
0.017054
  0
VERTEX
  8
0
 10
4.301517
 20
6.837642
 42
0.339329
  0
VERTEX
  8
0
 10
4.273299
 20
6.824888
 42
-0.345817
  0
VERTEX
  8
0
 10
4.234656
 20
6.809975
 42
-0.121618
  0
VERTEX
  8
0
 10
4.285954
 20
6.927847
 42
-0.046191
  0
VERTEX
  8
0
 10
4.368378
 20
7.019781
 42
-0.076668
  0
VERTEX
  8
0
 10
4.367609
 20
7.02781
 42
0.31066
  0
VERTEX
  8
0
 10
4.361461
 20
7.042836
 42
0.114834
  0
VERTEX
  8
0
 10
4.304955
 20
7.009401
 42
-0.060539
  0
VERTEX
  8
0
 10
4.267535
 20
6.983305
 42
-0.152961
  0
VERTEX
  8
0
 10
4.218517
 20
6.975975
 42
-0.218661
  0
VERTEX
  8
0
 10
4.235089
 20
7.037809
 42
-0.05414
  0
VERTEX
  8
0
 10
4.286508
 20
7.089393
 42
0.061839
  0
VERTEX
  8
0
 10
4.333794
 20
7.137364
 42
0.133561
  0
VERTEX
  8
0
 10
4.202376
 20
7.075114
 42
-0.123375
  0
VERTEX
  8
0
 10
4.396044
 20
7.319504
 42
0.106355
  0
VERTEX
  8
0
 10
4.392874
 20
7.337948
 42
0.469881
  0
VERTEX
  8
0
 10
4.3776
 20
7.34256
 42
0.115826
  0
VERTEX
  8
0
 10
4.353068
 20
7.33366
 42
-0.108722
  0
VERTEX
  8
0
 10
4.329747
 20
7.324988
 42
-0.419719
  0
VERTEX
  8
0
 10
4.325234
 20
7.330313
 42
-0.098985
  0
VERTEX
  8
0
 10
4.329183
 20
7.347171
 42
-0.056399
  0
VERTEX
  8
0
 10
4.498863
 20
7.478499
 42
0.013167
  0
VERTEX
  8
0
 10
4.582794
 20
7.536226
 42
0.308544
  0
VERTEX
  8
0
 10
4.556527
 20
7.557561
 42
0.063457
  0
VERTEX
  8
0
 10
4.514778
 20
7.557151
 42
-0.073881
  0
VERTEX
  8
0
 10
4.479044
 20
7.556976
 42
-0.150646
  0
VERTEX
  8
0
 10
4.519609
 20
7.606338
 42
-0.051019
  0
VERTEX
  8
0
 10
4.575794
 20
7.634697
 42
0.095238
  0
VERTEX
  8
0
 10
4.645044
 20
7.67456
 42
0.20419
  0
VERTEX
  8
0
 10
4.598233
 20
7.68701
 42
-0.092223
  0
VERTEX
  8
0
 10
4.566656
 20
7.690699
 42
-0.085938
  0
VERTEX
  8
0
 10
4.65199
 20
7.720779
 42
-0.026492
  0
VERTEX
  8
0
 10
4.745612
 20
7.731739
 42
0.069237
  0
VERTEX
  8
0
 10
4.894044
 20
7.75756
 42
-0.309684
  0
VERTEX
  8
0
 10
4.918567
 20
7.75437
 42
-0.139165
  0
VERTEX
  8
0
 10
4.923535
 20
7.733795
 42
0.105901
  0
VERTEX
  8
0
 10
4.928044
 20
7.712306
 42
0.293026
  0
VERTEX
  8
0
 10
4.949378
 20
7.702226
 42
-0.258145
  0
VERTEX
  8
0
 10
4.932594
 20
7.676258
 42
-0.085775
  0
VERTEX
  8
0
 10
4.902438
 20
7.668817
 42
0.199559
  0
VERTEX
  8
0
 10
4.859461
 20
7.651504
 42
0.088152
  0
VERTEX
  8
0
 10
4.760322
 20
7.584643
 42
0.233701
  0
VERTEX
  8
0
 10
4.811044
 20
7.540837
 42
0.102331
  0
VERTEX
  8
0
 10
4.76234
 20
7.469653
 42
0.185565
  0
VERTEX
  8
0
 10
4.760322
 20
7.379449
 42
0.198159
  0
VERTEX
  8
0
 10
4.78367
 20
7.354377
 42
0.075292
  0
VERTEX
  8
0
 10
4.815
 20
7.347277
 42
-0.121579
  0
VERTEX
  8
0
 10
4.854851
 20
7.335643
 42
-0.003643
  0
VERTEX
  8
0
 10
4.849836
 20
7.326473
 42
0.091944
  0
VERTEX
  8
0
 10
4.823428
 20
7.260841
 42
0.19983
  0
VERTEX
  8
0
 10
4.830537
 20
7.231262
 42
0.185695
  0
VERTEX
  8
0
 10
4.866379
 20
7.213447
 42
-0.091225
  0
VERTEX
  8
0
 10
4.884888
 20
7.213793
 42
0.37281
  0
VERTEX
  8
0
 10
4.914796
 20
7.224976
 42
0.299899
  0
VERTEX
  8
0
 10
4.904522
 20
7.240237
 42
0.094812
  0
VERTEX
  8
0
 10
4.885761
 20
7.242019
 42
-0.111425
  0
VERTEX
  8
0
 10
4.865235
 20
7.244404
 42
-0.297218
  0
VERTEX
  8
0
 10
4.854851
 20
7.264169
 42
-0.256235
  0
VERTEX
  8
0
 10
4.877178
 20
7.309232
 42
0.255756
  0
VERTEX
  8
0
 10
4.898657
 20
7.351782
 42
0.194842
  0
VERTEX
  8
0
 10
4.87193
 20
7.370717
 42
0.05477
  0
VERTEX
  8
0
 10
4.837132
 20
7.375009
 42
-0.119313
  0
VERTEX
  8
0
 10
4.795968
 20
7.383093
 42
-0.317261
  0
VERTEX
  8
0
 10
4.783378
 20
7.42556
 42
-0.235328
  0
VERTEX
  8
0
 10
4.843324
 20
7.517782
 42
0.225075
  0
VERTEX
  8
0
 10
4.898657
 20
7.536226
 42
0.376759
  0
VERTEX
  8
0
 10
4.887959
 20
7.555753
 42
0.073669
  0
VERTEX
  8
0
 10
4.858174
 20
7.561138
 42
-0.198703
  0
VERTEX
  8
0
 10
4.804128
 20
7.580032
 42
-0.210957
  0
VERTEX
  8
0
 10
4.930933
 20
7.639976
 42
-0.079376
  0
VERTEX
  8
0
 10
4.997091
 20
7.602382
 42
0.100034
  0
VERTEX
  8
0
 10
5.069268
 20
7.563893
 42
-0.153187
  0
VERTEX
  8
0
 10
5.091005
 20
7.51039
 42
-0.043158
  0
VERTEX
  8
0
 10
5.091086
 20
7.447681
 42
0.08262
  0
VERTEX
  8
0
 10
5.095188
 20
7.365677
 42
0.254168
  0
VERTEX
  8
0
 10
5.152268
 20
7.307976
 42
0.266843
  0
VERTEX
  8
0
 10
5.141901
 20
7.259159
 42
0.084589
  0
VERTEX
  8
0
 10
5.167826
 20
7.216467
 42
-0.098901
  0
VERTEX
  8
0
 10
5.191463
 20
7.176558
 42
0.182656
  0
VERTEX
  8
0
 10
5.238602
 20
7.132039
 42
0.057761
  0
VERTEX
  8
0
 10
5.302627
 20
7.114759
 42
-0.089165
  0
VERTEX
  8
0
 10
5.377582
 20
7.091389
 42
-0.239673
  0
VERTEX
  8
0
 10
5.419714
 20
7.019781
 42
0.156346
  0
VERTEX
  8
0
 10
5.44152
 20
7.002533
 42
0.027378
  0
VERTEX
  8
0
 10
5.476579
 20
6.989081
 42
-0.128399
  0
VERTEX
  8
0
 10
5.523824
 20
6.965472
 42
-0.384039
  0
VERTEX
  8
0
 10
5.519939
 20
6.949328
 42
-0.084469
  0
VERTEX
  8
0
 10
5.484268
 20
6.927558
 42
0.067322
  0
VERTEX
  8
0
 10
5.216535
 20
6.692391
 42
0.049608
  0
VERTEX
  8
0
 10
5.009324
 20
6.394974
 42
0.257503
  0
VERTEX
  8
0
 10
5.010867
 20
6.379895
 42
0.505664
  0
VERTEX
  8
0
 10
5.020851
 20
6.383446
 42
-0.03964
  0
VERTEX
  8
0
 10
5.259477
 20
6.700461
 42
-0.095527
  0
VERTEX
  8
0
 10
5.574186
 20
6.948308
 42
0.162148
  0
VERTEX
  8
0
 10
5.641047
 20
6.865308
 42
0.090864
  0
VERTEX
  8
0
 10
5.396657
 20
6.624377
 42
0.069155
  0
VERTEX
  8
0
 10
5.242185
 20
6.328112
 42
0.354249
  0
VERTEX
  8
0
 10
5.244718
 20
6.317617
 42
0.330915
  0
VERTEX
  8
0
 10
5.255385
 20
6.328112
 42
-0.142774
  0
VERTEX
  8
0
 10
5.657185
 20
6.844558
 42
-0.070597
  0
VERTEX
  8
0
 10
5.722812
 20
6.832273
 42
0.083242
  0
VERTEX
  8
0
 10
5.783992
 20
6.821503
 42
0.033677
  0
VERTEX
  8
0
 10
5.647343
 20
6.651241
 42
0.064757
  0
VERTEX
  8
0
 10
5.544125
 20
6.455539
 42
-0.938483
  0
VERTEX
  8
0
 10
5.557683
 20
6.448319
 42
-0.0463
  0
VERTEX
  8
0
 10
5.678805
 20
6.66258
 42
-0.037751
  0
VERTEX
  8
0
 10
5.755396
 20
6.757288
 42
-0.073783
  0
VERTEX
  8
0
 10
5.834714
 20
6.821503
 42
-0.175355
  0
VERTEX
  8
0
 10
6.015988
 20
6.80911
 42
-0.072031
  0
VERTEX
  8
0
 10
6.171326
 20
6.715447
 42
0.040725
  0
VERTEX
  8
0
 10
6.292173
 20
6.677958
 42
0.098038
  0
VERTEX
  8
0
 10
6.39342
 20
6.674918
 42
0.126612
  0
VERTEX
  8
0
 10
6.482625
 20
6.717719
 42
0.079232
  0
VERTEX
  8
0
 10
6.567349
 20
6.817754
 42
-0.136711
  0
VERTEX
  8
0
 10
6.614339
 20
6.865135
 42
-0.204421
  0
VERTEX
  8
0
 10
6.692382
 20
6.865308
 42
0.188267
  0
VERTEX
  8
0
 10
6.760798
 20
6.916632
 42
-0.076954
  0
VERTEX
  8
0
 10
6.80305
 20
6.959836
 42
0.144094
  0
VERTEX
  8
0
 10
7.033606
 20
6.936781
 42
0.001354
  0
VERTEX
  8
0
 10
7.075945
 20
6.911079
 42
-0.035809
  0
VERTEX
  8
0
 10
7.267916
 20
6.782458
 42
-0.100751
  0
VERTEX
  8
0
 10
7.416329
 20
6.604779
 42
-0.965322
  0
VERTEX
  8
0
 10
7.432468
 20
6.616308
 42
0.099472
  0
VERTEX
  8
0
 10
7.267908
 20
6.815162
 42
0.04732
  0
VERTEX
  8
0
 10
7.056661
 20
6.955225
 42
-0.331758
  0
VERTEX
  8
0
 10
7.058629
 20
6.972236
 42
-0.073377
  0
VERTEX
  8
0
 10
7.075401
 20
6.985051
 42
0.149273
  0
VERTEX
  8
0
 10
7.095854
 20
7.003642
 42
-0.097399
  0
VERTEX
  8
0
 10
7.369658
 20
6.862868
 42
-0.050197
  0
VERTEX
  8
0
 10
7.533256
 20
6.696147
 42
0.003093
  0
VERTEX
  8
0
 10
7.562672
 20
6.661785
 42
0.25046
  0
VERTEX
  8
0
 10
7.57498
 20
6.653838
 42
0.335729
  0
VERTEX
  8
0
 10
7.576047
 20
6.665128
 42
0.085706
  0
VERTEX
  8
0
 10
7.388715
 20
6.870275
 42
0.061384
  0
VERTEX
  8
0
 10
7.203901
 20
6.987065
 42
0.929651
  0
VERTEX
  8
0
 10
7.204261
 20
6.99798
 42
-0.039024
  0
VERTEX
  8
0
 10
7.237289
 20
7.007613
 42
0.04213
  0
VERTEX
  8
0
 10
7.277994
 20
7.019781
 42
-0.397425
  0
VERTEX
  8
0
 10
7.330844
 20
7.055251
 42
-0.082553
  0
VERTEX
  8
0
 10
7.403967
 20
7.03646
 42
-0.032689
  0
VERTEX
  8
0
 10
7.490435
 20
6.993781
 42
-0.033257
  0
VERTEX
  8
0
 10
7.642272
 20
6.892975
 42
0.161651
  0
VERTEX
  8
0
 10
7.667234
 20
6.850253
 42
-0.232843
  0
SEQEND
  8
0
  0
ENDSEC
  0
EOF
